<?xml version="1.0"?>
<!-- Created by MetaPost 2.00 on 2019.03.22:1831 -->
<svg version="1.1" xmlns="http://www.w3.org/2000/svg" xmlns:xlink="http://www.w3.org/1999/xlink" width="17.500000" height="22.250000" viewBox="0 0 17.500000 22.250000">
<!-- Original BoundingBox: -0.250000 0.750000 17.250000 22.250000 -->
  <path d="M0.000000 21.000000L4.000000 -0.000000" style="stroke:rgb(0.000000%,0.000000%,0.000000%); stroke-width: 0.500000;stroke-linecap: round;stroke-linejoin: round;stroke-miterlimit: 10.000000;fill: none;"></path>
  <path d="M5.000000 21.000000L5.000000 -0.000000" style="stroke:rgb(0.000000%,0.000000%,0.000000%); stroke-width: 0.500000;stroke-linecap: round;stroke-linejoin: round;stroke-miterlimit: 10.000000;fill: none;"></path>
  <path d="M10.000000 21.000000L13.000000 20.000000L15.000000 18.000000L16.000000 16.000000L16.000000 14.000000L15.000000 12.000000L13.000000 11.000000L10.000000 10.000000" style="stroke:rgb(0.000000%,0.000000%,0.000000%); stroke-width: 0.500000;stroke-linecap: round;stroke-linejoin: round;stroke-miterlimit: 10.000000;fill: none;"></path>
  <path d="M5.000000 10.000000L10.000000 10.000000L14.000000 11.000000L16.000000 12.000000L17.000000 14.000000L17.000000 16.000000L16.000000 18.000000L14.000000 20.000000L10.000000 21.000000L2.000000 21.000000L3.000000 21.000000L4.000000 20.000000" style="stroke:rgb(0.000000%,0.000000%,0.000000%); stroke-width: 0.500000;stroke-linecap: round;stroke-linejoin: round;stroke-miterlimit: 10.000000;fill: none;"></path>
  <path d="M4.000000 1.000000L3.000000 -0.000000L2.000000 -0.000000L7.000000 -0.000000L6.000000 -0.000000L5.000000 1.000000" style="stroke:rgb(0.000000%,0.000000%,0.000000%); stroke-width: 0.500000;stroke-linecap: round;stroke-linejoin: round;stroke-miterlimit: 10.000000;fill: none;"></path>
  <path d="M11.000000 10.000000L12.000000 7.000000L13.000000 5.000000L15.000000 2.000000L17.000000 -0.000000L14.000000 2.000000L12.000000 5.000000L11.000000 7.000000L10.000000 10.000000" style="stroke:rgb(0.000000%,0.000000%,0.000000%); stroke-width: 0.500000;stroke-linecap: round;stroke-linejoin: round;stroke-miterlimit: 10.000000;fill: none;"></path>
</svg>
