<!-- Created by MetaPost 2.00 on 2021.04.20:1145 --><svg xmlns="http://www.w3.org/2000/svg" xmlns:xlink="http://www.w3.org/1999/xlink" version="1.1" width="266.001892" height="851.206055" viewBox="0 0 266 851">
<!-- Original BoundingBox: 0.000000 -239.401703 266.001892 611.804352 -->
  <path d="M0.000000 850.401703L266.001892 850.401703L266.001892 -0.804352L0.000000 -0.804352Z" style="stroke:rgb(100.000000%,0.000000%,0.000000%); stroke-width: 0.000000;stroke-linecap: round;stroke-linejoin: round;stroke-miterlimit: 10.000000;fill: none;"/>
  <g transform="matrix(0.681995,-0.731357,0.731357,0.681995,0.000000,0.000000)">
    <path d="M-120.076342 221.084822L-101.935157 240.539063L-14.391074 158.903731C5.785205 140.089241,38.391039 145.962400,51.072656 170.600434C65.901065 199.409256,63.366067 249.552295,95.769091 238.033749C124.213468 227.922426,106.589424 184.860854,60.799821 161.529800C20.083953 140.783951,-29.269609 136.407051,-61.713620 166.661268L-120.076342 221.084822" style="stroke:rgb(100.000000%,0.000000%,0.000000%); stroke-width: 26.600062;stroke-linecap: round;stroke-linejoin: round;stroke-miterlimit: 10.000000;fill: none;"/>
  </g>
  <g transform="matrix(0.681995,-0.731357,0.731357,0.681995,0.000000,0.000000)">
    <path d="M-90.894936 193.873003L-382.708634 465.990861L-364.567449 485.445101L-72.753751 213.327244" style="stroke:rgb(100.000000%,0.000000%,0.000000%); stroke-width: 26.600062;stroke-linecap: round;stroke-linejoin: round;stroke-miterlimit: 10.000000;fill: none;"/>
  </g>
  <g transform="matrix(0.681995,-0.731357,0.731357,0.681995,0.000000,0.000000)">
    <path d="M-156.358711 182.176341L-47.511602 298.901785" style="stroke:rgb(100.000000%,0.000000%,0.000000%); stroke-width: 26.600062;stroke-linecap: round;stroke-linejoin: round;stroke-miterlimit: 10.000000;fill: none;"/>
  </g>
  <path d="M66.500473 611.000000L66.500473 211.997162C66.500473 176.530243,119.700851 176.530243,119.700851 211.997162L119.700851 611.000000C119.700851 646.466919,66.500473 646.466919,66.500473 611.000000Z" style="fill: rgb(0.000000%,0.000000%,0.000000%);stroke: none;"/>
  <path d="M119.700851 238.597351L119.700851 158.796783C119.700851 129.248184,121.681763 96.873245,146.301041 81.656128C168.352371 68.026260,197.345474 76.218369,209.003235 99.372879C229.510803 140.104782,290.192917 85.103821,243.199997 58.619415C213.648453 41.964676,178.388245 38.732117,146.301041 49.735977C99.223373 65.880615,66.500473 109.219604,66.500473 158.796783L66.500473 238.597351C66.500473 274.064270,119.700851 274.064270,119.700851 238.597351Z" style="fill: rgb(0.000000%,0.000000%,0.000000%);stroke: none;"/>
  <path d="M26.600189 254.557419L186.201324 254.557419C207.481430 254.557419,207.481430 222.637268,186.201324 222.637268L26.600189 222.637268C5.320084 222.637268,5.320084 254.557419,26.600189 254.557419Z" style="fill: rgb(0.000000%,0.000000%,0.000000%);stroke: none;"/>
  <path d="M119.700851 611.000000C119.700851 678.669678,99.345078 745.379089,55.860352 797.201324C38.415543 817.990906,15.375000 807.408768,23.940201 797.201324C66.297623 746.722534,66.500473 676.891983,66.500473 611.000000C66.500473 575.533081,119.700851 575.533081,119.700851 611.000000Z" style="fill: rgb(0.000000%,0.000000%,0.000000%);stroke: none;"/>
</svg>