<!-- Created by MetaPost 2.00 on 2021.04.20:1145 --><svg xmlns="http://www.w3.org/2000/svg" xmlns:xlink="http://www.w3.org/1999/xlink" version="1.1" width="372.402649" height="851.206055" viewBox="29 0 372 851">
<!-- Original BoundingBox: -29.260162 -239.401703 372.402649 611.804352 -->
  <path d="M29.000000 850.401703L401.402649 850.401703L401.402649 -0.804352L29.000000 -0.804352Z" style="stroke:rgb(100.000000%,0.000000%,0.000000%); stroke-width: 0.000000;stroke-linecap: round;stroke-linejoin: round;stroke-miterlimit: 10.000000;fill: none;"/>
  <g transform="matrix(0.681995,-0.731357,0.731357,0.681995,0.000000,0.000000)">
    <path d="M16.962720 387.544417L-235.942496 623.379904L-217.801311 642.834145L35.103905 406.998657" style="stroke:rgb(100.000000%,0.000000%,0.000000%); stroke-width: 26.600062;stroke-linecap: round;stroke-linejoin: round;stroke-miterlimit: 10.000000;fill: none;"/>
  </g>
  <g transform="matrix(0.681995,-0.731357,0.731357,0.681995,0.000000,0.000000)">
    <path d="M-12.218685 414.756236C0.260872 373.414344,-12.955956 328.607436,-45.874944 300.656904C-103.296912 251.901599,-186.844473 270.358714,-253.306312 312.232811C-338.157513 365.693066,-384.569248 463.995575,-326.648421 526.108701C-242.269948 616.594472,-117.387276 512.826518,-12.218685 414.756236C-117.387276 512.826518,-242.269948 616.594472,-326.648421 526.108701C-380.679300 468.167077,-320.391522 382.386112,-235.165127 331.687051C-162.857279 288.672911,-74.479793 260.278070,-27.733759 320.111144C-6.764377 346.951125,-0.916244 382.625972,-12.218685 414.756236" style="stroke:rgb(100.000000%,0.000000%,0.000000%); stroke-width: 26.600062;stroke-linecap: round;stroke-linejoin: round;stroke-miterlimit: 10.000000;fill: none;"/>
  </g>
  <path d="M295.001892 256.493912C255.208069 224.360962,200.924896 216.823868,153.882004 236.899750C82.392822 267.408249,50.441406 346.085007,42.300095 424.798676C32.169968 522.741150,73.876419 621.397614,159.229568 621.397614C279.798935 621.397614,313.622147 471.658066,313.622147 331.698013C313.622147 310.417908,281.701996 310.417908,281.701996 331.698013C281.701996 453.732925,269.605408 589.962570,164.772339 589.962570C98.861328 589.962570,83.360825 504.845749,95.500473 424.798676C104.628479 364.609863,113.445633 298.781860,164.799515 266.895035C207.456894 240.408066,263.135361 249.610245,295.001892 288.414062C305.123428 300.739029,316.640915 273.967117,295.001892 256.493912Z" style="fill: rgb(0.000000%,0.000000%,0.000000%);stroke: none;"/>
  <path d="M281.701797 611.000000L281.701797 265.197540C281.701797 229.730621,334.902176 229.730621,334.902176 265.197540L334.902176 611.000000C334.902176 646.466919,281.701797 646.466919,281.701797 611.000000Z" style="fill: rgb(0.000000%,0.000000%,0.000000%);stroke: none;"/>
  <path d="M334.902176 611.000000C334.902176 668.800583,314.258652 725.705048,270.099243 762.759796C230.676025 795.840332,182.947769 819.829285,131.602478 817.578049C59.924103 814.435318,-0.260162 760.697159,-0.260162 690.800568C-0.260162 670.294769,13.155960 653.312103,26.340027 637.600189C43.784836 616.810593,66.825363 627.392746,58.260178 637.600189C45.076111 653.312103,31.659988 670.294769,31.659988 690.800568C31.659988 750.306244,98.475067 781.481094,165.799240 776.824585C192.542358 774.974884,219.563004 769.078461,240.103958 751.842285C279.495743 718.788116,281.701797 662.835434,281.701797 611.000000C281.701797 575.533081,334.902176 575.533081,334.902176 611.000000Z" style="fill: rgb(0.000000%,0.000000%,0.000000%);stroke: none;"/>
</svg>