<!-- Created by MetaPost 2.00 on 2021.04.20:1145 --><svg xmlns="http://www.w3.org/2000/svg" xmlns:xlink="http://www.w3.org/1999/xlink" version="1.1" width="452.203217" height="851.206055" viewBox="12 0 452 851">
<!-- Original BoundingBox: -12.528625 -239.401703 452.203217 611.804352 -->
  <path d="M12.000000 850.401703L464.203217 850.401703L464.203217 -0.804352L12.000000 -0.804352Z" style="stroke:rgb(100.000000%,0.000000%,0.000000%); stroke-width: 0.000000;stroke-linecap: round;stroke-linejoin: round;stroke-miterlimit: 10.000000;fill: none;"/>
  <g transform="matrix(0.681995,-0.731357,0.731357,0.681995,0.000000,0.000000)">
    <path d="M-24.348280 148.225735L-374.524699 474.767147L-356.383514 494.221388L-6.207095 167.679976" style="stroke:rgb(100.000000%,0.000000%,0.000000%); stroke-width: 26.600062;stroke-linecap: round;stroke-linejoin: round;stroke-miterlimit: 10.000000;fill: none;"/>
  </g>
  <g transform="matrix(0.681995,-0.731357,0.731357,0.681995,0.000000,0.000000)">
    <path d="M-307.747868 448.868384C-198.519634 363.531183,-68.577446 276.311198,15.095888 366.040793C42.344358 395.261503,56.556477 436.491550,30.610962 460.685884C17.641468 472.780008,-0.499717 453.325767,12.469777 441.231644C33.958339 421.193443,35.134089 387.529355,15.095888 366.040793" style="stroke:rgb(100.000000%,0.000000%,0.000000%); stroke-width: 26.600062;stroke-linecap: round;stroke-linejoin: round;stroke-miterlimit: 10.000000;fill: none;"/>
  </g>
  <g transform="matrix(0.681995,-0.731357,0.731357,0.681995,0.000000,0.000000)">
    <path d="M12.469821 441.231602L-172.345553 613.572942L-154.204368 633.027183L30.611006 460.685843" style="stroke:rgb(100.000000%,0.000000%,0.000000%); stroke-width: 26.600062;stroke-linecap: round;stroke-linejoin: round;stroke-miterlimit: 10.000000;fill: none;"/>
  </g>
  <g transform="matrix(0.681995,-0.731357,0.731357,0.681995,0.000000,0.000000)">
    <path d="M-152.891268 595.431716L-134.750083 614.885956L-187.276477 663.867104L-89.397121 663.521558C-153.966362 666.904641,-237.901825 674.704522,-196.663348 636.249418L-152.891268 595.431716" style="stroke:rgb(100.000000%,0.000000%,0.000000%); stroke-width: 26.600062;stroke-linecap: round;stroke-linejoin: round;stroke-miterlimit: 10.000000;fill: none;"/>
  </g>
  <g transform="matrix(0.681995,-0.731357,0.731357,0.681995,0.000000,0.000000)">
    <path d="M-25.661380 185.821202L-43.802565 166.366962L8.723829 117.385815L-89.155527 117.731361C-24.586285 114.348277,59.349178 106.548396,18.110701 145.003500L-25.661380 185.821202" style="stroke:rgb(100.000000%,0.000000%,0.000000%); stroke-width: 26.600062;stroke-linecap: round;stroke-linejoin: round;stroke-miterlimit: 10.000000;fill: none;"/>
  </g>
  <path d="M78.500473 584.399811L78.500473 78.996216C78.500473 43.529297,131.700851 43.529297,131.700851 78.996216L131.700851 584.399811C131.700851 619.866730,78.500473 619.866730,78.500473 584.399811Z" style="fill: rgb(0.000000%,0.000000%,0.000000%);stroke: none;"/>
  <path d="M317.902176 584.399811L317.902176 291.797729C317.902176 256.330811,371.102554 256.330811,371.102554 291.797729L371.102554 584.399811C371.102554 619.866730,317.902176 619.866730,317.902176 584.399811Z" style="fill: rgb(0.000000%,0.000000%,0.000000%);stroke: none;"/>
  <path d="M121.060730 584.399811C134.363434 432.352661,141.889069 254.557419,278.001892 254.557419C299.570877 254.557419,317.902176 270.729019,317.902176 291.797729C317.902176 327.264648,371.102554 327.264648,371.102554 291.797729C371.102554 248.458466,325.589828 222.637268,278.001892 222.637268C127.297043 222.637268,103.961761 414.996704,89.140579 584.399811C87.450485 603.717255,119.048019 607.404724,121.060730 584.399811Z" style="fill: rgb(0.000000%,0.000000%,0.000000%);stroke: none;"/>
  <path d="M11.744003 461.089996L-0.225998 401.239578C-3.402527 385.356857,19.366058 397.457672,24.226013 421.757584L36.196014 481.608002C39.372543 497.490723,16.603958 485.389908,11.744003 461.089996Z" style="fill: rgb(0.000000%,0.000000%,0.000000%);stroke: none;"/>
</svg>