<!-- Created by MetaPost 2.00 on 2021.04.20:1145 --><svg xmlns="http://www.w3.org/2000/svg" xmlns:xlink="http://www.w3.org/1999/xlink" version="1.1" width="239.401703" height="851.206055" viewBox="12 0 239 851">
<!-- Original BoundingBox: -12.528625 -239.401703 239.401703 611.804352 -->
  <path d="M12.000000 850.401703L251.401703 850.401703L251.401703 -0.804352L12.000000 -0.804352Z" style="stroke:rgb(100.000000%,0.000000%,0.000000%); stroke-width: 0.000000;stroke-linecap: round;stroke-linejoin: round;stroke-miterlimit: 10.000000;fill: none;"/>
  <g transform="matrix(0.681995,-0.731357,0.731357,0.681995,0.000000,0.000000)">
    <path d="M-121.619482 238.931660L-335.616217 438.484778L-317.475033 457.939018L-103.478297 258.385901" style="stroke:rgb(100.000000%,0.000000%,0.000000%); stroke-width: 26.600062;stroke-linecap: round;stroke-linejoin: round;stroke-miterlimit: 10.000000;fill: none;"/>
  </g>
  <g transform="matrix(0.681995,-0.731357,0.731357,0.681995,0.000000,0.000000)">
    <path d="M-316.161932 420.343551L-298.020747 439.797792L-350.547141 488.778939L-252.667785 488.433393C-317.237027 491.816477,-401.172490 499.616357,-359.934013 461.161254L-316.161932 420.343551" style="stroke:rgb(100.000000%,0.000000%,0.000000%); stroke-width: 26.600062;stroke-linecap: round;stroke-linejoin: round;stroke-miterlimit: 10.000000;fill: none;"/>
  </g>
  <g transform="matrix(0.681995,-0.731357,0.731357,0.681995,0.000000,0.000000)">
    <path d="M-25.004852 167.023490l0 0" style="stroke:rgb(0.000000%,0.000000%,0.000000%); stroke-width: 26.600062;stroke-linecap: round;stroke-linejoin: round;stroke-miterlimit: 10.000000;fill: none;"/>
  </g>
  <g transform="matrix(0.681995,-0.731357,0.731357,0.681995,0.000000,0.000000)">
    <path d="M-152.113943 303.738905L-170.255128 284.284664L-117.728735 235.303517L-215.608091 235.649063C-151.038849 232.265979,-67.103386 224.466098,-108.341863 262.921202L-152.113943 303.738905" style="stroke:rgb(100.000000%,0.000000%,0.000000%); stroke-width: 26.600062;stroke-linecap: round;stroke-linejoin: round;stroke-miterlimit: 10.000000;fill: none;"/>
  </g>
  <path d="M78.500473 584.399811L78.500473 291.797729C78.500473 256.330811,131.700851 256.330811,131.700851 291.797729L131.700851 584.399811C131.700851 619.866730,78.500473 619.866730,78.500473 584.399811Z" style="fill: rgb(0.000000%,0.000000%,0.000000%);stroke: none;"/>
  <path d="M11.744003 461.089996L-0.225998 401.239578C-3.402527 385.356857,19.366058 397.457672,24.226013 421.757584L36.196014 481.608002C39.372543 497.490723,16.603958 485.389908,11.744003 461.089996Z" style="fill: rgb(0.000000%,0.000000%,0.000000%);stroke: none;"/>
</svg>