<!-- Created by MetaPost 2.00 on 2021.04.20:1145 --><svg xmlns="http://www.w3.org/2000/svg" xmlns:xlink="http://www.w3.org/1999/xlink" version="1.1" width="239.401703" height="851.206055" viewBox="0 0 239 851">
<!-- Original BoundingBox: 0.000000 -239.401703 239.401703 611.804352 -->
  <path d="M0.000000 850.401703L239.401703 850.401703L239.401703 -0.804352L0.000000 -0.804352Z" style="stroke:rgb(100.000000%,0.000000%,0.000000%); stroke-width: 0.000000;stroke-linecap: round;stroke-linejoin: round;stroke-miterlimit: 10.000000;fill: none;"/>
  <g transform="matrix(0.681995,-0.731357,0.731357,0.681995,0.000000,0.000000)">
    <path d="M-129.803417 230.155373L-382.708634 465.990861L-364.567449 485.445101L-111.662232 249.609614" style="stroke:rgb(100.000000%,0.000000%,0.000000%); stroke-width: 26.600062;stroke-linecap: round;stroke-linejoin: round;stroke-miterlimit: 10.000000;fill: none;"/>
  </g>
  <g transform="matrix(0.681995,-0.731357,0.731357,0.681995,0.000000,0.000000)">
    <path d="M-33.188787 158.247203l0 0" style="stroke:rgb(0.000000%,0.000000%,0.000000%); stroke-width: 26.600062;stroke-linecap: round;stroke-linejoin: round;stroke-miterlimit: 10.000000;fill: none;"/>
  </g>
  <g transform="matrix(0.681995,-0.731357,0.731357,0.681995,0.000000,0.000000)">
    <path d="M-160.297878 294.962618L-178.439063 275.508377L-125.912670 226.527230L-223.792026 226.872776C-159.222784 223.489692,-75.287321 215.689812,-116.525798 254.144915L-160.297878 294.962618" style="stroke:rgb(100.000000%,0.000000%,0.000000%); stroke-width: 26.600062;stroke-linecap: round;stroke-linejoin: round;stroke-miterlimit: 10.000000;fill: none;"/>
  </g>
  <path d="M66.500473 611.000000L66.500473 251.897446C66.500473 216.430527,119.700851 216.430527,119.700851 251.897446L119.700851 611.000000C119.700851 646.466919,66.500473 646.466919,66.500473 611.000000Z" style="fill: rgb(0.000000%,0.000000%,0.000000%);stroke: none;"/>
  <path d="M119.700851 611.000000C119.700851 678.669678,99.345078 745.379089,55.860352 797.201324C38.415543 817.990906,15.375000 807.408768,23.940201 797.201324C66.297623 746.722534,66.500473 676.891983,66.500473 611.000000C66.500473 575.533081,119.700851 575.533081,119.700851 611.000000Z" style="fill: rgb(0.000000%,0.000000%,0.000000%);stroke: none;"/>
</svg>