<!-- Created by MetaPost 2.00 on 2021.04.20:1145 --><svg xmlns="http://www.w3.org/2000/svg" xmlns:xlink="http://www.w3.org/1999/xlink" version="1.1" width="452.203217" height="851.206055" viewBox="5 0 452 851">
<!-- Original BoundingBox: -5.128387 -239.401703 452.203217 611.804352 -->
  <path d="M5.000000 850.401703L457.203217 850.401703L457.203217 -0.804352L5.000000 -0.804352Z" style="stroke:rgb(100.000000%,0.000000%,0.000000%); stroke-width: 0.000000;stroke-linecap: round;stroke-linejoin: round;stroke-miterlimit: 10.000000;fill: none;"/>
  <path d="M71.500473 584.399811L71.500473 251.897446C71.500473 216.430527,124.700851 216.430527,124.700851 251.897446L124.700851 584.399811C124.700851 619.866730,71.500473 619.866730,71.500473 584.399811Z" style="fill: rgb(0.000000%,0.000000%,0.000000%);stroke: none;"/>
  <path d="M310.902176 584.399811L310.902176 291.797729C310.902176 256.330811,364.102554 256.330811,364.102554 291.797729L364.102554 584.399811C364.102554 619.866730,310.902176 619.866730,310.902176 584.399811Z" style="fill: rgb(0.000000%,0.000000%,0.000000%);stroke: none;"/>
  <path d="M114.060730 584.399811C127.363434 432.352661,134.889069 254.557419,271.001892 254.557419C292.570877 254.557419,310.902176 270.729019,310.902176 291.797729C310.902176 327.264648,364.102554 327.264648,364.102554 291.797729C364.102554 248.458466,318.589828 222.637268,271.001892 222.637268C120.297043 222.637268,96.961761 414.996704,82.140579 584.399811C80.450485 603.717255,112.048019 607.404724,114.060730 584.399811Z" style="fill: rgb(0.000000%,0.000000%,0.000000%);stroke: none;"/>
  <path d="M337.246368 580.790848L405.076935 481.040146C415.814545 465.249557,442.666214 482.238663,429.528946 501.558151L361.698380 601.308853C350.960770 617.099442,324.109100 600.110336,337.246368 580.790848Z" style="fill: rgb(0.000000%,0.000000%,0.000000%);stroke: none;"/>
  <path d="M95.696472 255.506393L27.865906 355.257095C17.128296 371.047684,-9.723373 354.058578,3.413895 334.739090L71.244461 234.988388C81.982071 219.197800,108.833740 236.186905,95.696472 255.506393Z" style="fill: rgb(0.000000%,0.000000%,0.000000%);stroke: none;"/>
</svg>