<!-- Created by MetaPost 2.00 on 2021.04.20:1145 --><svg xmlns="http://www.w3.org/2000/svg" xmlns:xlink="http://www.w3.org/1999/xlink" version="1.1" width="399.002838" height="851.206055" viewBox="0 0 399 851">
<!-- Original BoundingBox: 0.000000 -239.401703 399.002838 611.804352 -->
  <path d="M0.000000 850.401703L399.002838 850.401703L399.002838 -0.804352L0.000000 -0.804352Z" style="stroke:rgb(100.000000%,0.000000%,0.000000%); stroke-width: 0.000000;stroke-linecap: round;stroke-linejoin: round;stroke-miterlimit: 10.000000;fill: none;"/>
  <g transform="matrix(0.681995,-0.731357,0.731357,0.681995,0.000000,0.000000)">
    <path d="M-129.803417 230.155373L-382.708634 465.990861L-364.567449 485.445101L-111.662232 249.609614" style="stroke:rgb(100.000000%,0.000000%,0.000000%); stroke-width: 26.600062;stroke-linecap: round;stroke-linejoin: round;stroke-miterlimit: 10.000000;fill: none;"/>
  </g>
  <g transform="matrix(0.681995,-0.731357,0.731357,0.681995,0.000000,0.000000)">
    <path d="M-325.658923 449.162690C-338.138480 490.504582,-324.921652 535.311489,-292.002664 563.262022C-234.580696 612.017327,-151.033135 593.560212,-84.571296 551.686115C0.279905 498.225860,46.691640 399.923350,-11.229187 337.810224C-95.607660 247.324453,-220.490332 351.092408,-325.658923 449.162690C-220.490332 351.092408,-95.607660 247.324453,-11.229187 337.810224C42.801692 395.751848,-17.486086 481.532813,-102.712481 532.231874C-175.020329 575.246014,-263.397815 603.640855,-310.143849 543.807781C-331.113231 516.967801,-336.961364 481.292953,-325.658923 449.162690" style="stroke:rgb(100.000000%,0.000000%,0.000000%); stroke-width: 26.600062;stroke-linecap: round;stroke-linejoin: round;stroke-miterlimit: 10.000000;fill: none;"/>
  </g>
  <path d="M66.500473 797.201324L66.500473 265.197540C66.500473 229.730621,119.700851 229.730621,119.700851 265.197540L119.700851 797.201324C119.700851 832.668243,66.500473 832.668243,66.500473 797.201324Z" style="fill: rgb(0.000000%,0.000000%,0.000000%);stroke: none;"/>
</svg>