<!-- Created by MetaPost 2.00 on 2021.04.20:1145 --><svg xmlns="http://www.w3.org/2000/svg" xmlns:xlink="http://www.w3.org/1999/xlink" version="1.1" width="425.603027" height="851.206055" viewBox="0 0 425 851">
<!-- Original BoundingBox: 0.000000 -239.401703 425.603027 611.804352 -->
  <path d="M0.000000 850.401703L425.603027 850.401703L425.603027 -0.804352L0.000000 -0.804352Z" style="stroke:rgb(100.000000%,0.000000%,0.000000%); stroke-width: 0.000000;stroke-linecap: round;stroke-linejoin: round;stroke-miterlimit: 10.000000;fill: none;"/>
  <g transform="matrix(0.681995,-0.731357,0.731357,0.681995,0.000000,0.000000)">
    <path d="M-2.815123 366.335057L-255.720339 602.170545L-237.579154 621.624785L15.326062 385.789298" style="stroke:rgb(100.000000%,0.000000%,0.000000%); stroke-width: 26.600062;stroke-linecap: round;stroke-linejoin: round;stroke-miterlimit: 10.000000;fill: none;"/>
  </g>
  <g transform="matrix(0.681995,-0.731357,0.731357,0.681995,0.000000,0.000000)">
    <path d="M-31.996528 393.546876C-19.516971 352.204984,-32.733799 307.398077,-65.652787 279.447544C-123.074755 230.692239,-206.622316 249.149354,-273.084155 291.023451C-357.935356 344.483706,-404.347091 442.786216,-346.426264 504.899342C-262.047791 595.385113,-137.165119 491.617158,-31.996528 393.546876C-137.165119 491.617158,-262.047791 595.385113,-346.426264 504.899342C-400.457143 446.957717,-340.169365 361.176753,-254.942970 310.477692C-182.635122 267.463552,-94.257636 239.068711,-47.511602 298.901785C-26.542220 325.741765,-20.694087 361.416613,-31.996528 393.546876" style="stroke:rgb(100.000000%,0.000000%,0.000000%); stroke-width: 26.600062;stroke-linecap: round;stroke-linejoin: round;stroke-miterlimit: 10.000000;fill: none;"/>
  </g>
  <path d="M266.001892 256.493912C226.208069 224.360962,171.924896 216.823868,124.882004 236.899750C53.392822 267.408249,21.441406 346.085007,13.300095 424.798676C3.169968 522.741150,44.876419 621.397614,130.229568 621.397614C250.798935 621.397614,284.622147 471.658066,284.622147 331.698013C284.622147 310.417908,252.701996 310.417908,252.701996 331.698013C252.701996 453.732925,240.605408 589.962570,135.772339 589.962570C69.861328 589.962570,54.360825 504.845749,66.500473 424.798676C75.628479 364.609863,84.445633 298.781860,135.799515 266.895035C178.456894 240.408066,234.135361 249.610245,266.001892 288.414062C276.123428 300.739029,287.640915 273.967117,266.001892 256.493912Z" style="fill: rgb(0.000000%,0.000000%,0.000000%);stroke: none;"/>
  <path d="M252.701797 770.601135L252.701797 265.197540C252.701797 229.730621,305.902176 229.730621,305.902176 265.197540L305.902176 770.601135C305.902176 806.068054,252.701797 806.068054,252.701797 770.601135Z" style="fill: rgb(0.000000%,0.000000%,0.000000%);stroke: none;"/>
</svg>