<!-- Created by MetaPost 2.00 on 2021.04.20:1145 --><svg xmlns="http://www.w3.org/2000/svg" xmlns:xlink="http://www.w3.org/1999/xlink" version="1.1" width="266.001892" height="851.206055" viewBox="0 0 266 851">
<!-- Original BoundingBox: 0.000000 -239.401703 266.001892 611.804352 -->
  <path d="M0.000000 850.401703L266.001892 850.401703L266.001892 -0.804352L0.000000 -0.804352Z" style="stroke:rgb(100.000000%,0.000000%,0.000000%); stroke-width: 0.000000;stroke-linecap: round;stroke-linejoin: round;stroke-miterlimit: 10.000000;fill: none;"/>
  <g transform="matrix(0.681995,-0.731357,0.731357,0.681995,0.000000,0.000000)">
    <path d="M6.376267 103.167079L-343.800152 429.708491L-325.658968 449.162731L24.517452 122.621319" style="stroke:rgb(100.000000%,0.000000%,0.000000%); stroke-width: 26.600062;stroke-linecap: round;stroke-linejoin: round;stroke-miterlimit: 10.000000;fill: none;"/>
  </g>
  <g transform="matrix(0.681995,-0.731357,0.731357,0.681995,0.000000,0.000000)">
    <path d="M-156.358711 182.176341L-47.511602 298.901785" style="stroke:rgb(100.000000%,0.000000%,0.000000%); stroke-width: 26.600062;stroke-linecap: round;stroke-linejoin: round;stroke-miterlimit: 10.000000;fill: none;"/>
  </g>
  <g transform="matrix(0.681995,-0.731357,0.731357,0.681995,0.000000,0.000000)">
    <path d="M-324.345867 411.567264L-306.204682 431.021505L-358.731076 480.002652L-260.851720 479.657106C-325.420962 483.040190,-409.356425 490.840071,-368.117948 452.384967L-324.345867 411.567264" style="stroke:rgb(100.000000%,0.000000%,0.000000%); stroke-width: 26.600062;stroke-linecap: round;stroke-linejoin: round;stroke-miterlimit: 10.000000;fill: none;"/>
  </g>
  <path d="M66.500473 491.299149L66.500473 78.996216C66.500473 43.529297,119.700851 43.529297,119.700851 78.996216L119.700851 491.299149C119.700851 526.766068,66.500473 526.766068,66.500473 491.299149Z" style="fill: rgb(0.000000%,0.000000%,0.000000%);stroke: none;"/>
  <path d="M26.600189 254.557419L186.201324 254.557419C207.481430 254.557419,207.481430 222.637268,186.201324 222.637268L26.600189 222.637268C5.320084 222.637268,5.320084 254.557419,26.600189 254.557419Z" style="fill: rgb(0.000000%,0.000000%,0.000000%);stroke: none;"/>
  <path d="M119.700851 464.698959C113.604156 522.708313,136.172867 581.739838,186.201324 581.739838C207.481430 581.739838,207.481430 613.659988,186.201324 613.659988C111.558762 613.659988,58.338867 542.355743,66.500473 464.698959C70.583191 425.852356,123.013336 433.181107,119.700851 464.698959Z" style="fill: rgb(0.000000%,0.000000%,0.000000%);stroke: none;"/>
</svg>