<!-- Created by MetaPost 2.00 on 2021.04.20:1145 --><svg xmlns="http://www.w3.org/2000/svg" xmlns:xlink="http://www.w3.org/1999/xlink" version="1.1" width="452.203217" height="851.206055" viewBox="0 0 452 851">
<!-- Original BoundingBox: 0.000000 -239.401703 452.203217 611.804352 -->
  <path d="M0.000000 850.401703L452.203217 850.401703L452.203217 -0.804352L0.000000 -0.804352Z" style="stroke:rgb(100.000000%,0.000000%,0.000000%); stroke-width: 0.000000;stroke-linecap: round;stroke-linejoin: round;stroke-miterlimit: 10.000000;fill: none;"/>
  <g transform="matrix(0.681995,-0.731357,0.731357,0.681995,0.000000,0.000000)">
    <path d="M97.192570 472.888328L-339.076229 519.018193L-362.640820 495.560053L73.627968 449.430198L97.192570 472.888328" style="stroke:rgb(100.000000%,0.000000%,0.000000%); stroke-width: 26.600062;stroke-linecap: round;stroke-linejoin: round;stroke-miterlimit: 10.000000;fill: none;"/>
  </g>
  <path d="M114.380890 265.197540L353.782593 584.399811C366.741272 601.678040,328.118988 621.115509,300.582214 584.399811L61.180511 265.197540C48.221832 247.919312,86.844116 228.481842,114.380890 265.197540Z" style="fill: rgb(0.000000%,0.000000%,0.000000%);stroke: none;"/>
  <path d="M148.961014 597.699905C292.988419 543.535767,388.362717 405.772888,388.362717 251.897446C388.362717 230.617340,356.442566 230.617340,356.442566 251.897446C356.442566 405.772888,261.068268 543.535767,117.040863 597.699905C95.158890 605.929016,130.295853 604.719269,148.961014 597.699905Z" style="fill: rgb(0.000000%,0.000000%,0.000000%);stroke: none;"/>
</svg>