<!-- Created by MetaPost 2.00 on 2021.04.20:1145 --><svg xmlns="http://www.w3.org/2000/svg" xmlns:xlink="http://www.w3.org/1999/xlink" version="1.1" width="452.203217" height="851.206055" viewBox="0 0 452 851">
<!-- Original BoundingBox: 0.000000 -239.401703 452.203217 611.804352 -->
  <path d="M0.000000 850.401703L452.203217 850.401703L452.203217 -0.804352L0.000000 -0.804352Z" style="stroke:rgb(100.000000%,0.000000%,0.000000%); stroke-width: 0.000000;stroke-linecap: round;stroke-linejoin: round;stroke-miterlimit: 10.000000;fill: none;"/>
  <path d="M114.380890 265.197540L220.781647 584.399811C228.614441 607.898178,181.709747 626.785233,167.581268 584.399811L61.180511 265.197540C53.347717 241.699173,100.252411 222.812119,114.380890 265.197540Z" style="fill: rgb(0.000000%,0.000000%,0.000000%);stroke: none;"/>
  <path d="M223.441620 597.699905C309.052002 502.869934,356.442566 379.654480,356.442566 251.897446C356.442566 230.617340,324.522415 230.617340,324.522415 251.897446C324.522415 379.654480,277.131851 502.869934,191.521469 597.699905C182.355545 607.852936,205.479324 617.596603,223.441620 597.699905Z" style="fill: rgb(0.000000%,0.000000%,0.000000%);stroke: none;"/>
  <path d="M319.202271 611.000000L319.202271 265.197540C319.202271 229.730621,372.402649 229.730621,372.402649 265.197540L372.402649 611.000000C372.402649 646.466919,319.202271 646.466919,319.202271 611.000000Z" style="fill: rgb(0.000000%,0.000000%,0.000000%);stroke: none;"/>
  <path d="M372.402649 611.000000C372.402649 668.800583,351.759125 725.705048,307.599716 762.759796C268.176498 795.840332,220.448242 819.829285,169.102951 817.578049C97.424576 814.435318,37.240311 760.697159,37.240311 690.800568C37.240311 670.294769,50.656433 653.312103,63.840500 637.600189C81.285309 616.810593,104.325836 627.392746,95.760651 637.600189C82.576584 653.312103,69.160461 670.294769,69.160461 690.800568C69.160461 750.306244,135.975540 781.481094,203.299713 776.824585C230.042831 774.974884,257.063477 769.078461,277.604431 751.842285C316.996216 718.788116,319.202271 662.835434,319.202271 611.000000C319.202271 575.533081,372.402649 575.533081,372.402649 611.000000Z" style="fill: rgb(0.000000%,0.000000%,0.000000%);stroke: none;"/>
</svg>