<!-- Created by MetaPost 2.00 on 2021.04.20:1145 --><svg xmlns="http://www.w3.org/2000/svg" xmlns:xlink="http://www.w3.org/1999/xlink" version="1.1" width="399.002838" height="851.206055" viewBox="0 0 399 851">
<!-- Original BoundingBox: 0.000000 -239.401703 399.002838 611.804352 -->
  <path d="M0.000000 850.401703L399.002838 850.401703L399.002838 -0.804352L0.000000 -0.804352Z" style="stroke:rgb(100.000000%,0.000000%,0.000000%); stroke-width: 0.000000;stroke-linecap: round;stroke-linejoin: round;stroke-miterlimit: 10.000000;fill: none;"/>
  <g transform="matrix(0.681995,-0.731357,0.731357,0.681995,0.000000,0.000000)">
    <path d="M-418.990959 427.082338L-237.579109 621.624743" style="stroke:rgb(100.000000%,0.000000%,0.000000%); stroke-width: 26.600062;stroke-linecap: round;stroke-linejoin: round;stroke-miterlimit: 10.000000;fill: none;"/>
  </g>
  <g transform="matrix(0.681995,-0.731357,0.731357,0.681995,0.000000,0.000000)">
    <path d="M-166.085832 191.246934L15.326018 385.789339" style="stroke:rgb(100.000000%,0.000000%,0.000000%); stroke-width: 26.600062;stroke-linecap: round;stroke-linejoin: round;stroke-miterlimit: 10.000000;fill: none;"/>
  </g>
  <g transform="matrix(0.681995,-0.731357,0.731357,0.681995,0.000000,0.000000)">
    <path d="M6.866317 390.832670L-388.927145 449.435913L-412.897723 426.392849L-17.104272 367.789616L6.866317 390.832670" style="stroke:rgb(100.000000%,0.000000%,0.000000%); stroke-width: 26.600062;stroke-linecap: round;stroke-linejoin: round;stroke-miterlimit: 10.000000;fill: none;"/>
  </g>
  <path d="M305.902176 259.877579L93.100662 584.399811C67.673752 623.175842,28.208084 602.230408,39.900284 584.399811L252.701797 259.877579C278.128708 221.101547,317.594376 242.046982,305.902176 259.877579Z" style="fill: rgb(0.000000%,0.000000%,0.000000%);stroke: none;"/>
  <path d="M26.600189 267.857513L292.602081 267.857513C313.882187 267.857513,313.882187 235.937363,292.602081 235.937363L26.600189 235.937363C5.320084 235.937363,5.320084 267.857513,26.600189 267.857513Z" style="fill: rgb(0.000000%,0.000000%,0.000000%);stroke: none;"/>
</svg>