<!-- Created by MetaPost 2.00 on 2021.04.20:1145 --><svg xmlns="http://www.w3.org/2000/svg" xmlns:xlink="http://www.w3.org/1999/xlink" version="1.1" width="665.00473" height="851.206055" viewBox="0 0 665 851">
<!-- Original BoundingBox: 0.000000 -239.401703 665.004730 611.804352 -->
  <path d="M0.000000 850.401703L665.004730 850.401703L665.004730 -0.804352L0.000000 -0.804352Z" style="stroke:rgb(100.000000%,0.000000%,0.000000%); stroke-width: 0.000000;stroke-linecap: round;stroke-linejoin: round;stroke-miterlimit: 10.000000;fill: none;"/>
  <g transform="matrix(0.681995,-0.731357,0.731357,0.681995,0.000000,0.000000)">
    <path d="M-47.511602 298.901785L-103.248212 278.134488L-179.752119 313.103803L-197.893304 293.649562L-178.439063 275.508377L-103.248212 278.134488L-47.511602 298.901785L6.911953 357.264506L5.598897 394.859932L4.285842 432.455357L-34.622639 468.737727L-170.802323 595.726022" style="stroke:rgb(0.000000%,0.000000%,0.000000%); stroke-width: 26.600062;stroke-linecap: round;stroke-linejoin: round;stroke-miterlimit: 10.000000;fill: none;"/>
  </g>
  <g transform="matrix(0.681995,-0.731357,0.731357,0.681995,0.000000,0.000000)">
    <path d="M-182.378230 388.294654L-257.569081 385.668542L-314.618747 402.496672L-353.527228 438.779042L-374.294524 494.515652" style="stroke:rgb(0.000000%,0.000000%,0.000000%); stroke-width: 26.600062;stroke-linecap: round;stroke-linejoin: round;stroke-miterlimit: 10.000000;fill: none;"/>
  </g>
  <g transform="matrix(0.681995,-0.731357,0.731357,0.681995,0.000000,0.000000)">
    <path d="M-170.802323 595.726022L-150.035027 539.989411L-13.855343 413.001117L6.911953 357.264506" style="stroke:rgb(0.000000%,0.000000%,0.000000%); stroke-width: 26.600062;stroke-linecap: round;stroke-linejoin: round;stroke-miterlimit: 10.000000;fill: none;"/>
  </g>
  <g transform="matrix(0.681995,-0.731357,0.731357,0.681995,0.000000,0.000000)">
    <path d="M-72.218065 467.424671L-72.218065 467.424671L-182.378230 388.294654L-275.710266 366.214302L-332.759932 383.042431L-371.668413 419.324801L-374.294524 494.515652L-319.870969 552.878374L-264.134359 573.645670L-188.943508 576.271781L-150.035027 539.989411" style="stroke:rgb(0.000000%,0.000000%,0.000000%); stroke-width: 26.600062;stroke-linecap: round;stroke-linejoin: round;stroke-miterlimit: 10.000000;fill: none;"/>
  </g>
  <g transform="matrix(0.681995,-0.731357,0.731357,0.681995,0.000000,0.000000)">
    <path d="M107.880729 699.562502L148.102266 625.684707L168.869562 569.948097" style="stroke:rgb(0.000000%,0.000000%,0.000000%); stroke-width: 26.600062;stroke-linecap: round;stroke-linejoin: round;stroke-miterlimit: 10.000000;fill: none;"/>
  </g>
  <g transform="matrix(0.681995,-0.731357,0.731357,0.681995,0.000000,0.000000)">
    <path d="M-46.440140 807.096556L-8.844714 808.409612" style="stroke:rgb(0.000000%,0.000000%,0.000000%); stroke-width: 26.600062;stroke-linecap: round;stroke-linejoin: round;stroke-miterlimit: 10.000000;fill: none;"/>
  </g>
  <g transform="matrix(0.681995,-0.731357,0.731357,0.681995,0.000000,0.000000)">
    <path d="M-156.600305 727.966539L-138.459120 747.420779L-155.287249 690.371113L-152.661138 615.180262L-131.893842 559.443652L-54.076880 486.878912L22.427027 451.909598L60.022452 453.222653L115.759063 473.989950L152.041432 512.898431L168.869562 569.948097L166.243451 645.138948L126.021914 719.016743L-73.531120 505.020097" style="stroke:rgb(0.000000%,0.000000%,0.000000%); stroke-width: 26.600062;stroke-linecap: round;stroke-linejoin: round;stroke-miterlimit: 10.000000;fill: none;"/>
  </g>
  <g transform="matrix(0.681995,-0.731357,0.731357,0.681995,0.000000,0.000000)">
    <path d="M115.759063 473.989950L60.022452 453.222653L-15.168399 450.596542L-72.218065 467.424671L-150.035027 539.989411L-170.802323 595.726022L-173.428434 670.916873L-156.600305 727.966539L-102.176750 786.329260L-46.440140 807.096556" style="stroke:rgb(0.000000%,0.000000%,0.000000%); stroke-width: 26.600062;stroke-linecap: round;stroke-linejoin: round;stroke-miterlimit: 10.000000;fill: none;"/>
  </g>
</svg>