<!-- Created by MetaPost 2.00 on 2021.04.20:1145 --><svg xmlns="http://www.w3.org/2000/svg" xmlns:xlink="http://www.w3.org/1999/xlink" version="1.1" width="372.402649" height="851.206055" viewBox="0 66 372 851">
<!-- Original BoundingBox: 0.000000 -239.401703 372.402649 678.304764 -->
  <path d="M0.000000 917.401703L372.402649 917.401703L372.402649 66.195648L0.000000 66.195648Z" style="stroke:rgb(100.000000%,0.000000%,0.000000%); stroke-width: 0.000000;stroke-linecap: round;stroke-linejoin: round;stroke-miterlimit: 10.000000;fill: none;"/>
  <g transform="matrix(0.681995,-0.731357,0.731357,0.681995,0.000000,0.000000)">
    <path d="M-390.952255 691.904047C-331.800124 636.744363,-360.031705 532.199481,-298.812478 478.684725C-252.658143 438.338931,-182.329724 447.584400,-139.360184 493.664068C-182.888195 446.985508,-188.039233 375.388073,-143.178554 333.555246C-84.075246 278.441090,16.846210 311.629764,75.949518 256.515608C118.926642 216.439206,121.278142 149.111031,81.201740 106.133906C114.735381 142.094706,120.488517 196.797253,86.333166 228.647303C27.346365 283.652816,-71.100876 254.698349,-132.794906 305.686941C-189.498149 352.550783,-190.672222 438.638074,-139.360184 493.664068C-191.349877 437.911371,-278.252074 432.286336,-327.337311 487.098790C-377.937172 543.602606,-353.601584 638.888846,-409.749968 691.247519C-447.354949 726.314368,-506.267108 724.256805,-541.333957 686.651824C-501.257555 729.628949,-433.929380 731.980448,-390.952255 691.904047Z" style="stroke:rgb(0.000000%,0.000000%,0.000000%); stroke-width: 26.600062;stroke-linecap: round;stroke-linejoin: round;stroke-miterlimit: 10.000000;fill: none;"/>
  </g>
</svg>