<!-- Created by MetaPost 2.00 on 2021.04.20:1145 --><svg xmlns="http://www.w3.org/2000/svg" xmlns:xlink="http://www.w3.org/1999/xlink" version="1.1" width="638.404541" height="851.206055" viewBox="0 0 638 851">
<!-- Original BoundingBox: 0.000000 -239.401703 638.404541 611.804352 -->
  <path d="M0.000000 850.401703L638.404541 850.401703L638.404541 -0.804352L0.000000 -0.804352Z" style="stroke:rgb(100.000000%,0.000000%,0.000000%); stroke-width: 0.000000;stroke-linecap: round;stroke-linejoin: round;stroke-miterlimit: 10.000000;fill: none;"/>
  <g transform="matrix(0.681995,-0.731357,0.731357,0.681995,0.000000,0.000000)">
    <path d="M-275.710266 366.214302L-236.801785 329.931932L-160.297878 294.962618L-104.561268 315.729914L-68.278898 354.638395L-51.450769 411.688061L-37.248751 543.928578L-20.420621 600.978244L15.861749 639.886725L71.598359 660.654021L128.648025 643.825892" style="stroke:rgb(0.000000%,0.000000%,0.000000%); stroke-width: 26.600062;stroke-linecap: round;stroke-linejoin: round;stroke-miterlimit: 10.000000;fill: none;"/>
  </g>
  <g transform="matrix(0.681995,-0.731357,0.731357,0.681995,0.000000,0.000000)">
    <path d="M-236.801785 329.931932L-179.752119 313.103803L-124.015508 333.871099L-87.733139 372.779580L-70.905009 429.829246L-56.702991 562.069763L-39.874862 619.119429L-3.592492 658.027910L52.144119 678.795206L128.648025 643.825892L167.556506 607.543522" style="stroke:rgb(0.000000%,0.000000%,0.000000%); stroke-width: 26.600062;stroke-linecap: round;stroke-linejoin: round;stroke-miterlimit: 10.000000;fill: none;"/>
  </g>
</svg>