<!-- Created by MetaPost 2.00 on 2021.04.20:1145 --><svg xmlns="http://www.w3.org/2000/svg" xmlns:xlink="http://www.w3.org/1999/xlink" version="1.1" width="505.403595" height="851.206055" viewBox="0 0 505 851">
<!-- Original BoundingBox: 0.000000 -239.401703 505.403595 611.804352 -->
  <path d="M0.000000 850.401703L505.403595 850.401703L505.403595 -0.804352L0.000000 -0.804352Z" style="stroke:rgb(100.000000%,0.000000%,0.000000%); stroke-width: 0.000000;stroke-linecap: round;stroke-linejoin: round;stroke-miterlimit: 10.000000;fill: none;"/>
  <g transform="matrix(0.681995,-0.731357,0.731357,0.681995,0.000000,0.000000)">
    <path d="M-188.166183 284.578970C-289.148430 378.745463,-357.011327 513.049804,-274.518007 601.513975C-192.024687 689.978146,-53.313026 631.650590,47.669221 537.484097C148.651468 443.317603,216.514364 309.013263,134.021044 220.549091C51.527724 132.084920,-87.183937 190.412476,-188.166183 284.578970Z" style="stroke:rgb(0.000000%,0.000000%,0.000000%); stroke-width: 26.600062;stroke-linecap: round;stroke-linejoin: round;stroke-miterlimit: 10.000000;fill: none;"/>
  </g>
  <g transform="matrix(0.681995,-0.731357,0.731357,0.681995,0.000000,0.000000)">
    <path d="M-206.307368 265.124729C-102.711370 168.520898,46.910691 127.133707,134.021044 220.549091C221.131398 313.964476,169.406404 460.334506,65.810406 556.938337C-37.785593 653.542169,-187.407654 694.929360,-274.518007 601.513975C-361.628361 508.098590,-309.903367 361.728560,-206.307368 265.124729Z" style="stroke:rgb(0.000000%,0.000000%,0.000000%); stroke-width: 26.600062;stroke-linecap: round;stroke-linejoin: round;stroke-miterlimit: 10.000000;fill: none;"/>
  </g>
</svg>