<!-- Created by MetaPost 2.00 on 2021.04.20:1145 --><svg xmlns="http://www.w3.org/2000/svg" xmlns:xlink="http://www.w3.org/1999/xlink" version="1.1" width="399.002838" height="851.206055" viewBox="0 0 399 851">
<!-- Original BoundingBox: 0.000000 -239.401703 399.002838 611.804352 -->
  <path d="M0.000000 850.401703L399.002838 850.401703L399.002838 -0.804352L0.000000 -0.804352Z" style="stroke:rgb(100.000000%,0.000000%,0.000000%); stroke-width: 0.000000;stroke-linecap: round;stroke-linejoin: round;stroke-miterlimit: 10.000000;fill: none;"/>
  <g transform="matrix(0.681995,-0.731357,0.731357,0.681995,0.000000,0.000000)">
    <path d="M-319.870969 552.878374C-342.745427 528.348267,-336.556767 491.753460,-335.386043 458.233282C-334.514269 433.272643,-362.771039 434.011528,-363.254348 447.849634C-364.628155 487.184490,-346.753592 524.049992,-319.870969 552.878374C-257.534182 619.727087,-151.330127 616.831416,-84.571296 551.686115C-28.478623 496.949172,-16.835021 409.805770,-68.278898 354.638395C-9.090801 356.705595,55.216072 379.687327,101.557044 341.749433C146.045210 305.328380,144.784761 237.919937,106.809267 191.367731C70.926907 147.381379,11.503082 130.300854,-42.259379 148.520083L-42.259379 148.520083C1.034650 135.995373,47.703817 148.495906,78.940962 180.984083C126.852621 230.814598,123.929463 310.408841,68.496920 345.299943C28.409742 370.532149,-21.335264 356.277946,-68.278898 354.638395C-22.246376 404.002742,-48.047752 481.620058,-102.712481 532.231874C-168.013320 592.691256,-264.099004 612.687104,-319.870969 552.878374Z" style="stroke:rgb(0.000000%,0.000000%,0.000000%); stroke-width: 26.600062;stroke-linecap: round;stroke-linejoin: round;stroke-miterlimit: 10.000000;fill: none;"/>
  </g>
</svg>