<!-- Created by MetaPost 2.00 on 2021.04.20:1145 --><svg xmlns="http://www.w3.org/2000/svg" xmlns:xlink="http://www.w3.org/1999/xlink" version="1.1" width="399.002838" height="851.206055" viewBox="0 0 399 851">
<!-- Original BoundingBox: 0.000000 -239.401703 399.002838 611.804352 -->
  <path d="M0.000000 850.401703L399.002838 850.401703L399.002838 -0.804352L0.000000 -0.804352Z" style="stroke:rgb(100.000000%,0.000000%,0.000000%); stroke-width: 0.000000;stroke-linecap: round;stroke-linejoin: round;stroke-miterlimit: 10.000000;fill: none;"/>
  <g transform="matrix(0.681995,-0.731357,0.731357,0.681995,0.000000,0.000000)">
    <path d="M169.646931 278.255244L42.658636 142.075560L-101.935157 240.539063C-21.199074 327.118809,-0.257334 456.676652,-74.844176 542.615522C-139.689788 617.330533,-253.700199 623.838572,-319.870969 552.878374C-346.753592 524.049992,-364.628155 487.184490,-363.254348 447.849634C-362.771039 434.011528,-334.514269 433.272643,-335.386043 458.233282C-336.556767 491.753460,-342.745427 528.348267,-319.870969 552.878374C-264.658786 612.086805,-170.019488 603.787950,-107.904300 546.166033C-20.835150 465.395253,-20.006582 328.397613,-101.935157 240.539063" style="stroke:rgb(0.000000%,0.000000%,0.000000%); stroke-width: 26.600062;stroke-linecap: round;stroke-linejoin: round;stroke-miterlimit: 10.000000;fill: none;"/>
  </g>
  <g transform="matrix(0.681995,-0.731357,0.731357,0.681995,0.000000,0.000000)">
    <path d="M23.204396 160.216745L150.192690 296.396429L207.242356 279.568299C178.913553 274.506659,152.990616 260.393348,133.364561 239.346763" style="stroke:rgb(0.000000%,0.000000%,0.000000%); stroke-width: 26.600062;stroke-linecap: round;stroke-linejoin: round;stroke-miterlimit: 10.000000;fill: none;"/>
  </g>
</svg>