<!-- Created by MetaPost 2.00 on 2021.04.20:1145 --><svg xmlns="http://www.w3.org/2000/svg" xmlns:xlink="http://www.w3.org/1999/xlink" version="1.1" width="452.203217" height="851.206055" viewBox="0 0 452 851">
<!-- Original BoundingBox: 0.000000 -239.401703 452.203217 611.804352 -->
  <path d="M0.000000 850.401703L452.203217 850.401703L452.203217 -0.804352L0.000000 -0.804352Z" style="stroke:rgb(100.000000%,0.000000%,0.000000%); stroke-width: 0.000000;stroke-linecap: round;stroke-linejoin: round;stroke-miterlimit: 10.000000;fill: none;"/>
  <g transform="matrix(0.681995,-0.731357,0.731357,0.681995,0.000000,0.000000)">
    <path d="M215.656377 308.093174C90.388592 210.202156,-87.470404 217.957864,-203.741650 326.381433C-289.843608 406.671976,-344.131207 523.215529,-274.518007 601.513975C-217.719766 665.398638,-116.909816 651.483671,-48.288926 590.594596C18.485868 531.343623,43.648078 435.663105,-12.542288 375.405691C-41.092642 344.788868,-82.391837 329.400910,-124.015508 333.871099L-124.015508 333.871099C-82.442711 329.798818,-41.314537 345.123054,-12.542288 375.405691C50.489834 441.746665,39.941914 547.941516,-30.147741 610.048837C-101.542171 673.312340,-209.999317 670.702516,-274.518007 601.513975C-345.188249 525.728634,-317.931147 405.585503,-236.801785 329.931932C-111.552698 213.136478,79.741007 203.903332,215.656377 308.093174Z" style="stroke:rgb(0.000000%,0.000000%,0.000000%); stroke-width: 26.600062;stroke-linecap: round;stroke-linejoin: round;stroke-miterlimit: 10.000000;fill: none;"/>
  </g>
</svg>