<!-- Created by MetaPost 2.00 on 2021.04.20:1145 --><svg xmlns="http://www.w3.org/2000/svg" xmlns:xlink="http://www.w3.org/1999/xlink" version="1.1" width="425.603027" height="851.206055" viewBox="0 0 425 851">
<!-- Original BoundingBox: 0.000000 -239.401703 425.603027 611.804352 -->
  <path d="M0.000000 850.401703L425.603027 850.401703L425.603027 -0.804352L0.000000 -0.804352Z" style="stroke:rgb(100.000000%,0.000000%,0.000000%); stroke-width: 0.000000;stroke-linecap: round;stroke-linejoin: round;stroke-miterlimit: 10.000000;fill: none;"/>
  <g transform="matrix(0.681995,-0.731357,0.731357,0.681995,0.000000,0.000000)">
    <path d="M106.809267 191.367731L106.809267 191.367731C59.004916 155.378956,-7.265138 156.959423,-53.299555 195.186101C-103.773445 237.099285,-113.431609 311.259513,-68.278898 354.638395C40.822646 459.453880,203.757688 307.516069,106.809267 191.367731Z" style="stroke:rgb(0.000000%,0.000000%,0.000000%); stroke-width: 26.600062;stroke-linecap: round;stroke-linejoin: round;stroke-miterlimit: 10.000000;fill: none;"/>
  </g>
  <g transform="matrix(0.681995,-0.731357,0.731357,0.681995,0.000000,0.000000)">
    <path d="M109.971109 370.274266C160.190976 323.443967,155.338027 243.408993,106.809267 191.367731C58.280518 139.326479,-21.220874 128.901562,-71.440740 175.731860C-121.660607 222.562158,-116.807658 302.597133,-68.278898 354.638395C-19.750149 406.679646,59.751243 417.104564,109.971109 370.274266Z" style="stroke:rgb(0.000000%,0.000000%,0.000000%); stroke-width: 26.600062;stroke-linecap: round;stroke-linejoin: round;stroke-miterlimit: 10.000000;fill: none;"/>
  </g>
  <g transform="matrix(0.681995,-0.731357,0.731357,0.681995,0.000000,0.000000)">
    <path d="M-293.851451 346.760061C-229.385775 286.645469,-128.393490 290.172720,-68.278898 354.638395C-8.164306 419.104070,-11.691556 520.096356,-76.157232 580.210948C-140.622907 640.325540,-241.615192 636.798290,-301.729784 572.332614C-361.844377 507.866939,-358.317126 406.874654,-293.851451 346.760061Z" style="stroke:rgb(0.000000%,0.000000%,0.000000%); stroke-width: 26.600062;stroke-linecap: round;stroke-linejoin: round;stroke-miterlimit: 10.000000;fill: none;"/>
  </g>
  <g transform="matrix(0.681995,-0.731357,0.731357,0.681995,0.000000,0.000000)">
    <path d="M-94.298417 560.756707C-33.082391 503.672431,-14.539690 412.267237,-68.278898 354.638395C-122.018106 297.009553,-214.494240 309.130025,-275.710266 366.214302C-336.926292 423.298578,-355.468993 514.703772,-301.729784 572.332614C-247.990576 629.961457,-155.514442 617.840984,-94.298417 560.756707Z" style="stroke:rgb(0.000000%,0.000000%,0.000000%); stroke-width: 26.600062;stroke-linecap: round;stroke-linejoin: round;stroke-miterlimit: 10.000000;fill: none;"/>
  </g>
</svg>