<!-- Created by MetaPost 2.00 on 2021.04.20:1145 --><svg xmlns="http://www.w3.org/2000/svg" xmlns:xlink="http://www.w3.org/1999/xlink" version="1.1" width="159.601135" height="851.206055" viewBox="0 0 159 851">
<!-- Original BoundingBox: 0.000000 -239.401703 159.601135 611.804352 -->
  <path d="M0.000000 850.401703L159.601135 850.401703L159.601135 -0.804352L0.000000 -0.804352Z" style="stroke:rgb(100.000000%,0.000000%,0.000000%); stroke-width: 0.000000;stroke-linecap: round;stroke-linejoin: round;stroke-miterlimit: 10.000000;fill: none;"/>
  <g transform="matrix(0.681995,-0.731357,0.731357,0.681995,0.000000,0.000000)">
    <path d="M-392.435709 475.061412C-392.275420 462.124645,-398.771518 448.251153,-391.122654 437.465986C-382.452895 425.241350,-363.931597 426.417204,-353.527228 438.779042C-344.089397 449.992493,-344.289550 466.535850,-354.840284 476.374467C-391.154721 510.237877,-438.797977 529.904104,-488.393856 528.171911C-441.691891 529.803021,-392.935541 515.402345,-392.435709 475.061412Z" style="stroke:rgb(0.000000%,0.000000%,0.000000%); stroke-width: 26.600062;stroke-linecap: round;stroke-linejoin: round;stroke-miterlimit: 10.000000;fill: none;"/>
  </g>
  <g transform="matrix(0.681995,-0.731357,0.731357,0.681995,0.000000,0.000000)">
    <path d="M-158.984823 257.367192C-169.003918 246.622917,-168.416043 229.790862,-157.671767 219.771767C-146.927492 209.752672,-130.095437 210.340547,-120.076342 221.084822C-110.057246 231.829098,-110.645122 248.661153,-121.389397 258.680248C-132.133673 268.699343,-148.965727 268.111468,-158.984823 257.367192Z" style="stroke:rgb(0.000000%,0.000000%,0.000000%); stroke-width: 26.600062;stroke-linecap: round;stroke-linejoin: round;stroke-miterlimit: 10.000000;fill: none;"/>
  </g>
  <path d="M79.800568 584.399811l0 0" style="stroke:rgb(0.000000%,0.000000%,0.000000%); stroke-width: 53.200378;stroke-linecap: round;stroke-linejoin: round;stroke-miterlimit: 10.000000;fill: none;"/>
  <path d="M79.800568 265.197540l0 0" style="stroke:rgb(0.000000%,0.000000%,0.000000%); stroke-width: 53.200378;stroke-linecap: round;stroke-linejoin: round;stroke-miterlimit: 10.000000;fill: none;"/>
</svg>