<!-- Created by MetaPost 2.00 on 2021.04.20:1145 --><svg xmlns="http://www.w3.org/2000/svg" xmlns:xlink="http://www.w3.org/1999/xlink" version="1.1" width="585.204163" height="851.206055" viewBox="0 0 585 851">
<!-- Original BoundingBox: 0.000000 -239.401703 585.204163 611.804352 -->
  <path d="M0.000000 850.401703L585.204163 850.401703L585.204163 -0.804352L0.000000 -0.804352Z" style="stroke:rgb(100.000000%,0.000000%,0.000000%); stroke-width: 0.000000;stroke-linecap: round;stroke-linejoin: round;stroke-miterlimit: 10.000000;fill: none;"/>
  <g transform="matrix(0.681995,-0.731357,0.731357,0.681995,0.000000,0.000000)">
    <path d="M21.017222 707.821206L-25.672844 751.359946C-103.862805 745.593474,-176.149810 707.625512,-225.274297 646.521433C-317.575400 531.711628,-311.886156 365.855458,-206.307368 265.124729C-98.944140 162.691506,70.481296 166.541598,179.374051 269.184651C237.045306 323.545981,268.637071 400.027923,266.140765 479.242172L219.450699 522.780912C263.476612 438.660240,247.194391 335.629873,179.374051 269.184651C79.045632 170.890467,-83.164445 184.685152,-188.166183 284.578970C-291.380451 382.772266,-314.514589 540.724843,-225.274297 646.521433C-165.009826 717.966465,-65.705909 742.682327,21.017222 707.821206Z" style="stroke:rgb(0.000000%,0.000000%,0.000000%); stroke-width: 26.600062;stroke-linecap: round;stroke-linejoin: round;stroke-miterlimit: 10.000000;fill: none;"/>
  </g>
</svg>