<!-- Created by MetaPost 2.00 on 2021.04.20:1145 --><svg xmlns="http://www.w3.org/2000/svg" xmlns:xlink="http://www.w3.org/1999/xlink" version="1.1" width="611.804352" height="851.206055" viewBox="0 0 611 851">
<!-- Original BoundingBox: 0.000000 -239.401703 611.804352 611.804352 -->
  <path d="M0.000000 850.401703L611.804352 850.401703L611.804352 -0.804352L0.000000 -0.804352Z" style="stroke:rgb(100.000000%,0.000000%,0.000000%); stroke-width: 0.000000;stroke-linecap: round;stroke-linejoin: round;stroke-miterlimit: 10.000000;fill: none;"/>
  <g transform="matrix(0.681995,-0.731357,0.731357,0.681995,0.000000,0.000000)">
    <path d="M-25.672844 751.359946L10.609526 790.268427L-45.127084 769.501131C-115.338602 745.424271,-178.543982 704.434582,-229.165045 650.149576C-331.047580 540.892802,-317.396609 368.716049,-206.307368 265.124729C-95.218128 161.533409,77.491471 159.927918,179.374007 269.184693C232.739021 326.412257,263.563327 401.036181,266.140765 479.242172L227.232283 515.524542C259.691226 431.014868,241.114174 335.393602,179.374007 269.184693C83.823856 166.718640,-80.283806 183.978067,-188.166183 284.578970C-296.048561 385.179872,-324.715196 547.683523,-229.165045 650.149576C-175.399800 707.806340,-104.342534 748.612333,-25.672844 751.359946" style="stroke:rgb(0.000000%,0.000000%,0.000000%); stroke-width: 26.600062;stroke-linecap: round;stroke-linejoin: round;stroke-miterlimit: 10.000000;fill: none;"/>
  </g>
  <g transform="matrix(0.681995,-0.731357,0.731357,0.681995,0.000000,0.000000)">
    <path d="M-63.268269 750.046890L72.911415 623.058596" style="stroke:rgb(0.000000%,0.000000%,0.000000%); stroke-width: 26.600062;stroke-linecap: round;stroke-linejoin: round;stroke-miterlimit: 10.000000;fill: none;"/>
  </g>
  <g transform="matrix(0.681995,-0.731357,0.731357,0.681995,0.000000,0.000000)">
    <path d="M-45.127084 769.501131L91.052600 642.512836" style="stroke:rgb(0.000000%,0.000000%,0.000000%); stroke-width: 26.600062;stroke-linecap: round;stroke-linejoin: round;stroke-miterlimit: 10.000000;fill: none;"/>
  </g>
  <g transform="matrix(0.681995,-0.731357,0.731357,0.681995,0.000000,0.000000)">
    <path d="M53.457174 641.199781C69.458805 626.278173,54.001269 602.779737,36.629045 584.150115L127.334969 681.421317C109.962746 662.791695,87.599990 645.732414,71.598359 660.654021" style="stroke:rgb(0.000000%,0.000000%,0.000000%); stroke-width: 26.600062;stroke-linecap: round;stroke-linejoin: round;stroke-miterlimit: 10.000000;fill: none;"/>
  </g>
</svg>