<!-- Created by MetaPost 2.00 on 2021.04.20:1145 --><svg xmlns="http://www.w3.org/2000/svg" xmlns:xlink="http://www.w3.org/1999/xlink" version="1.1" width="638.404541" height="851.206055" viewBox="0 0 638 851">
<!-- Original BoundingBox: 0.000000 -239.401703 638.404541 611.804352 -->
  <path d="M0.000000 850.401703L638.404541 850.401703L638.404541 -0.804352L0.000000 -0.804352Z" style="stroke:rgb(100.000000%,0.000000%,0.000000%); stroke-width: 0.000000;stroke-linecap: round;stroke-linejoin: round;stroke-miterlimit: 10.000000;fill: none;"/>
  <g transform="matrix(0.681995,-0.731357,0.731357,0.681995,0.000000,0.000000)">
    <path d="M138.375145 634.755300C247.202323 535.029647,275.187599 371.933166,179.374051 269.184651C83.560504 166.436137,-81.091008 182.974505,-188.166183 284.578970C-293.585462 384.612158,-319.795337 545.158978,-225.274297 646.521433C-130.753257 747.883889,31.230942 732.938713,138.375145 634.755300Z" style="stroke:rgb(0.000000%,0.000000%,0.000000%); stroke-width: 26.600062;stroke-linecap: round;stroke-linejoin: round;stroke-miterlimit: 10.000000;fill: none;"/>
  </g>
  <g transform="matrix(0.681995,-0.731357,0.731357,0.681995,0.000000,0.000000)">
    <path d="M-225.274297 646.521433C-326.138784 538.356394,-314.957166 368.289316,-206.307368 265.124729C-96.110656 160.491326,77.156981 159.569128,179.374051 269.184651C281.591122 378.800174,268.582846 551.581276,156.516330 654.209540C46.022975 755.397133,-124.409810 754.686473,-225.274297 646.521433Z" style="stroke:rgb(0.000000%,0.000000%,0.000000%); stroke-width: 26.600062;stroke-linecap: round;stroke-linejoin: round;stroke-miterlimit: 10.000000;fill: none;"/>
  </g>
</svg>