<!-- Created by MetaPost 2.00 on 2021.04.20:1145 --><svg xmlns="http://www.w3.org/2000/svg" xmlns:xlink="http://www.w3.org/1999/xlink" version="1.1" width="638.404541" height="851.206055" viewBox="0 0 638 851">
<!-- Original BoundingBox: 0.000000 -239.401703 638.404541 611.804352 -->
  <path d="M0.000000 850.401703L638.404541 850.401703L638.404541 -0.804352L0.000000 -0.804352Z" style="stroke:rgb(100.000000%,0.000000%,0.000000%); stroke-width: 0.000000;stroke-linecap: round;stroke-linejoin: round;stroke-miterlimit: 10.000000;fill: none;"/>
  <g transform="matrix(0.681995,-0.731357,0.731357,0.681995,0.000000,0.000000)">
    <path d="M-396.374876 587.847688C-342.648853 589.724120,-283.692103 594.286991,-257.033350 639.765928C-226.078034 692.574630,-266.956167 757.249897,-249.007953 814.137172C-230.919342 871.469468,-168.313144 896.943240,-106.115917 899.115537C-157.130205 897.333815,-207.675387 875.504914,-226.003203 829.056111C-247.999725 773.309555,-208.307749 709.300226,-234.028610 654.684878C-260.740409 597.965370,-331.767191 590.104172,-396.374876 587.847688Z" style="stroke:rgb(0.000000%,0.000000%,0.000000%); stroke-width: 26.600062;stroke-linecap: round;stroke-linejoin: round;stroke-miterlimit: 10.000000;fill: none;"/>
  </g>
  <g transform="matrix(0.681995,-0.731357,0.731357,0.681995,0.000000,0.000000)">
    <path d="M-188.166183 284.578970C-80.283806 183.978067,83.823856 166.718640,179.374007 269.184693C274.924157 371.650746,246.257523 534.154397,138.375145 634.755300C30.492768 735.356202,-133.614894 752.615630,-229.165045 650.149576C-324.715196 547.683523,-296.048561 385.179872,-188.166183 284.578970Z" style="stroke:rgb(0.000000%,0.000000%,0.000000%); stroke-width: 26.600062;stroke-linecap: round;stroke-linejoin: round;stroke-miterlimit: 10.000000;fill: none;"/>
  </g>
  <g transform="matrix(0.681995,-0.731357,0.731357,0.681995,0.000000,0.000000)">
    <path d="M-229.165045 650.149576C-331.047580 540.892802,-317.396609 368.716049,-206.307368 265.124729C-95.218128 161.533409,77.491471 159.927918,179.374007 269.184693C281.256542 378.441467,267.605571 550.618220,156.516330 654.209540C45.427089 757.800860,-127.282509 759.406351,-229.165045 650.149576Z" style="stroke:rgb(0.000000%,0.000000%,0.000000%); stroke-width: 26.600062;stroke-linecap: round;stroke-linejoin: round;stroke-miterlimit: 10.000000;fill: none;"/>
  </g>
</svg>