<?xml version="1.0" encoding="UTF-8" standalone="no"?>
<svg
   xmlns:dc="http://purl.org/dc/elements/1.1/"
   xmlns:cc="http://creativecommons.org/ns#"
   xmlns:rdf="http://www.w3.org/1999/02/22-rdf-syntax-ns#"
   xmlns:svg="http://www.w3.org/2000/svg"
   xmlns="http://www.w3.org/2000/svg"
   xmlns:sodipodi="http://sodipodi.sourceforge.net/DTD/sodipodi-0.dtd"
   xmlns:inkscape="http://www.inkscape.org/namespaces/inkscape"
   data-dec="100"
   id="dec_110"
   width="18"
   height="40"
   version="1.1"
   sodipodi:docname="100.svg"
   inkscape:version="0.92.4 5da689c313, 2019-01-14">
  <metadata
     id="metadata9">
    <rdf:RDF>
      <cc:Work
         rdf:about="">
        <dc:format>image/svg+xml</dc:format>
        <dc:type
           rdf:resource="http://purl.org/dc/dcmitype/StillImage" />
        <dc:title />
      </cc:Work>
    </rdf:RDF>
  </metadata>
  <defs
     id="defs7" />
  <sodipodi:namedview
     pagecolor="#ffffff"
     bordercolor="#666666"
     borderopacity="1"
     objecttolerance="10"
     gridtolerance="10"
     guidetolerance="10"
     inkscape:pageopacity="0"
     inkscape:pageshadow="2"
     inkscape:window-width="1366"
     inkscape:window-height="731"
     id="namedview5"
     showgrid="true"
     inkscape:zoom="11.064609"
     inkscape:cx="-10.98019"
     inkscape:cy="15.085599"
     inkscape:window-x="0"
     inkscape:window-y="37"
     inkscape:window-maximized="0"
     inkscape:current-layer="dec_110"
     showguides="true"
     inkscape:guide-bbox="true">
    <inkscape:grid
       type="xygrid"
       id="grid812" />
    <sodipodi:guide
       position="26,15"
       orientation="0,1"
       id="guide816"
       inkscape:locked="false" />
  </sodipodi:namedview>
  <path
     id="path2-6-7"
     style="fill:none;stroke:#000000;stroke-width:1;stroke-linecap:round;stroke-linejoin:round"
     d="M 7,22 H 8 L 6,21 4,19 3,17 v -4 l 1,-3 m 9,9 -2,2 -2,1 H 7 L 5,21 3,19 2,17 V 13 L 3,11 5,9 7,8 h 3 l 2,1 1,2 m 1,11 V 2 M 13,22 V 1 m 0,21 h 3 -1 L 14,21 M 13,2 V 1 1 l 3,1 v 0 h -1 l -1,1"
     inkscape:connector-curvature="0"
     sodipodi:nodetypes="cccccccccccccccccccccccccccccccccccc" />
</svg>
