<svg xmlns:dc="http://purl.org/dc/elements/1.1/" xmlns:cc="http://creativecommons.org/ns#" xmlns:rdf="http://www.w3.org/1999/02/22-rdf-syntax-ns#" xmlns:svg="http://www.w3.org/2000/svg" xmlns="http://www.w3.org/2000/svg" xmlns:sodipodi="http://sodipodi.sourceforge.net/DTD/sodipodi-0.dtd" xmlns:inkscape="http://www.inkscape.org/namespaces/inkscape" data-dec="103" id="dec_111" width="16" height="40" version="1.1" sodipodi:docname="103.svg" inkscape:version="0.92.3 (2405546, 2018-03-11)">
  <metadata id="metadata9">
    <rdf:RDF>
      <cc:Work rdf:about="">
        <dc:format>image/svg+xml</dc:format>
        <dc:type rdf:resource="http://purl.org/dc/dcmitype/StillImage"/>
        <dc:title/>
      </cc:Work>
    </rdf:RDF>
  </metadata>
  <defs id="defs7"/>
  <sodipodi:namedview pagecolor="#ffffff" bordercolor="#666666" borderopacity="1" objecttolerance="10" gridtolerance="10" guidetolerance="10" inkscape:pageopacity="0" inkscape:pageshadow="2" inkscape:window-width="1360" inkscape:window-height="730" id="namedview5" showgrid="true" inkscape:zoom="8.4913905" inkscape:cx="-33.086474" inkscape:cy="12.786432" inkscape:window-x="37" inkscape:window-y="18" inkscape:window-maximized="0" inkscape:current-layer="dec_111" showguides="true" inkscape:guide-bbox="true">
    <inkscape:grid type="xygrid" id="grid812"/>
    <sodipodi:guide position="9,32" orientation="0,1" id="guide835" inkscape:locked="false"/>
    <sodipodi:guide position="2,23" orientation="1,0" id="guide837" inkscape:locked="false"/>
    <sodipodi:guide position="14,23" orientation="1,0" id="guide839" inkscape:locked="false"/>
    <sodipodi:guide position="9,18" orientation="0,1" id="guide841" inkscape:locked="false"/>
    <sodipodi:guide position="27,9" orientation="0,1" id="guide849" inkscape:locked="false"/>
    <sodipodi:guide position="13,20" orientation="1,0" id="guide861" inkscape:locked="false"/>
  </sodipodi:namedview>
  <path id="path869" style="fill:none;fill-rule:evenodd;stroke:#000000;stroke-width:1px;stroke-linecap:round;stroke-linejoin:round;stroke-opacity:1" d="m 4,19 h 2 m -2,5 -1,3 v 1 l 1,2 1,1 M 6,8 H 7 M 13,27 12,25 11,24 4,22 3,20 4,19 v 0 l -1,1 v 2 l 1,1 7,2 v 0 l 2,2 v 1 l -1,2 -2,1 H 5 L 3,30 2,28 v -1 l 1,-2 2,-2 m 5,-13 2,-2 1,1 v 1 L 12,9 M 6,8 4,9 3,10 2,12 v 3 l 1,2 1,1 2,1 h 1 l 2,-1 1,-1 1,-2 V 12 L 10,10 9,9 7,8 M 6,8 4,9 v 0 l -1,3 v 3 l 1,3 v 0 l 2,1 m 3,-1 v 0 l 1,-3 V 12 L 9,9 V 9 L 7,8     " inkscape:connector-curvature="0"/>
</svg>