<?xml version="1.0" encoding="UTF-8" standalone="no"?>
<svg
   xmlns:dc="http://purl.org/dc/elements/1.1/"
   xmlns:cc="http://creativecommons.org/ns#"
   xmlns:rdf="http://www.w3.org/1999/02/22-rdf-syntax-ns#"
   xmlns:svg="http://www.w3.org/2000/svg"
   xmlns="http://www.w3.org/2000/svg"
   xmlns:sodipodi="http://sodipodi.sourceforge.net/DTD/sodipodi-0.dtd"
   xmlns:inkscape="http://www.inkscape.org/namespaces/inkscape"
   data-dec="109"
   id="dec_110"
   width="29"
   height="40"
   version="1.1"
   sodipodi:docname="109.svg"
   inkscape:version="0.92.4 5da689c313, 2019-01-14">
  <metadata
     id="metadata9">
    <rdf:RDF>
      <cc:Work
         rdf:about="">
        <dc:format>image/svg+xml</dc:format>
        <dc:type
           rdf:resource="http://purl.org/dc/dcmitype/StillImage" />
        <dc:title />
      </cc:Work>
    </rdf:RDF>
  </metadata>
  <defs
     id="defs7" />
  <sodipodi:namedview
     pagecolor="#ffffff"
     bordercolor="#666666"
     borderopacity="1"
     objecttolerance="10"
     gridtolerance="10"
     guidetolerance="10"
     inkscape:pageopacity="0"
     inkscape:pageshadow="2"
     inkscape:window-width="1920"
     inkscape:window-height="1043"
     id="namedview5"
     showgrid="true"
     inkscape:zoom="18.431229"
     inkscape:cx="9.2634478"
     inkscape:cy="17.874392"
     inkscape:window-x="0"
     inkscape:window-y="37"
     inkscape:window-maximized="0"
     inkscape:current-layer="dec_110"
     showguides="true"
     inkscape:lockguides="false"
     inkscape:guide-bbox="true">
    <inkscape:grid
       type="xygrid"
       id="grid812" />
    <sodipodi:guide
       position="1,18"
       orientation="-0.70710678,0.70710678"
       id="guide816"
       inkscape:locked="false" />
  </sodipodi:namedview>
  <path
     id="path2-3"
     style="fill:none;stroke:#000000;stroke-width:1;stroke-linecap:round;stroke-linejoin:round"
     d="M 4,9 V 22 M 5,8 V 22 M 5,12 7,9 9,8 h 2 l 3,1 1,2 v 11 m -4,-14 2,1 1,2 V 22 M 5,8 2,9 h 1 l 1,1 m 10,11 -1,1 h -1 5 -1 L 15,21 M 4,21 3,22 H 2 7 6 L 5,21 m 10,-9 2,-3 2,-1 h 2 l 3,1 1,2 v 11 m -4,-14 2,1 1,2 v 11 m 0,-1 -1,1 h -1 5 -1 l -1,-1     " />
</svg>
