<svg xmlns:dc="http://purl.org/dc/elements/1.1/" xmlns:cc="http://creativecommons.org/ns#" xmlns:rdf="http://www.w3.org/1999/02/22-rdf-syntax-ns#" xmlns:svg="http://www.w3.org/2000/svg" xmlns="http://www.w3.org/2000/svg" xmlns:sodipodi="http://sodipodi.sourceforge.net/DTD/sodipodi-0.dtd" xmlns:inkscape="http://www.inkscape.org/namespaces/inkscape" data-dec="112" id="dec_110" width="18" height="40" version="1.1" sodipodi:docname="112.svg" inkscape:version="0.92.1 r15371">
  <metadata id="metadata9">
    <rdf:RDF>
      <cc:Work rdf:about="">
        <dc:format>image/svg+xml</dc:format>
        <dc:type rdf:resource="http://purl.org/dc/dcmitype/StillImage"/>
        <dc:title/>
      </cc:Work>
    </rdf:RDF>
  </metadata>
  <defs id="defs7"/>
  <sodipodi:namedview pagecolor="#ffffff" bordercolor="#666666" borderopacity="1" objecttolerance="10" gridtolerance="10" guidetolerance="10" inkscape:pageopacity="0" inkscape:pageshadow="2" inkscape:window-width="1920" inkscape:window-height="986" id="namedview5" showgrid="true" inkscape:zoom="16.98278" inkscape:cx="19.426579" inkscape:cy="21.949756" inkscape:window-x="0" inkscape:window-y="17" inkscape:window-maximized="1" inkscape:current-layer="dec_110" showguides="true">
    <inkscape:grid type="xygrid" id="grid812"/>
  </sodipodi:namedview>
  <path id="path2-6-7" style="fill:none;stroke:#000000;stroke-width:1;stroke-linecap:round;stroke-linejoin:round" d="M 11,8 H 10 L 12,9 14,11 l 1,2 v 4 L 14,20 M 5,10 6,9 8,8 h 3 L 13,9 l 2,2 1,2 V 17 l -1,2 -2,2 L 11,22 H 9 L 7,21 5,19 v 0 M 4,9 V 31 M 5,8 V 31 M 5,8 2,9 h 1 l 1,1 M 4,30 3,31 H 2 7 6 L 5,30     " inkscape:connector-curvature="0"/>
</svg>