<svg xmlns:dc="http://purl.org/dc/elements/1.1/" xmlns:cc="http://creativecommons.org/ns#" xmlns:rdf="http://www.w3.org/1999/02/22-rdf-syntax-ns#" xmlns:svg="http://www.w3.org/2000/svg" xmlns="http://www.w3.org/2000/svg" xmlns:sodipodi="http://sodipodi.sourceforge.net/DTD/sodipodi-0.dtd" xmlns:inkscape="http://www.inkscape.org/namespaces/inkscape" data-dec="113" id="dec_110" width="18" height="40" version="1.1" sodipodi:docname="113.svg" inkscape:version="0.92.1 r15371">
  <metadata id="metadata9">
    <rdf:RDF>
      <cc:Work rdf:about="">
        <dc:format>image/svg+xml</dc:format>
        <dc:type rdf:resource="http://purl.org/dc/dcmitype/StillImage"/>
        <dc:title/>
      </cc:Work>
    </rdf:RDF>
  </metadata>
  <defs id="defs7"/>
  <sodipodi:namedview pagecolor="#ffffff" bordercolor="#666666" borderopacity="1" objecttolerance="10" gridtolerance="10" guidetolerance="10" inkscape:pageopacity="0" inkscape:pageshadow="2" inkscape:window-width="1920" inkscape:window-height="986" id="namedview5" showgrid="true" inkscape:zoom="16.98278" inkscape:cx="18.708508" inkscape:cy="22.793459" inkscape:window-x="0" inkscape:window-y="17" inkscape:window-maximized="1" inkscape:current-layer="dec_110" showguides="true" inkscape:guide-bbox="true">
    <inkscape:grid type="xygrid" id="grid812"/>
    <sodipodi:guide position="20,18" orientation="0,1" id="guide816" inkscape:locked="false"/>
  </sodipodi:namedview>
  <path id="path2-6-7" style="fill:none;stroke:#000000;stroke-width:1;stroke-linecap:round;stroke-linejoin:round" d="M 7,22 H 8 l -2,-1 -2,-2 -1,-2 v -4 L 4,10 m 9,9 -2,2 -2,1 H 7 l -2,-1 -2,-2 -1,-2 v -4 l 1,-2 2,-2 2,-1 h 3 l 2,1 1,2 M 14,9 v 22 m -1,-23 v 23 m 0,-23 3,1 h -1 l -1,1 m 0,20 1,1 h 1 -5 1 l 1,-1     " inkscape:connector-curvature="0" sodipodi:nodetypes="ccccccccccccccccccccccccccccccccccc"/>
</svg>