<?xml version="1.0" encoding="UTF-8" standalone="no"?>
<svg
   xmlns:dc="http://purl.org/dc/elements/1.1/"
   xmlns:cc="http://creativecommons.org/ns#"
   xmlns:rdf="http://www.w3.org/1999/02/22-rdf-syntax-ns#"
   xmlns:svg="http://www.w3.org/2000/svg"
   xmlns="http://www.w3.org/2000/svg"
   xmlns:sodipodi="http://sodipodi.sourceforge.net/DTD/sodipodi-0.dtd"
   xmlns:inkscape="http://www.inkscape.org/namespaces/inkscape"
   data-dec="115"
   id="dec_115"
   width="14"
   height="40"
   version="1.1"
   sodipodi:docname="115.svg"
   inkscape:version="0.91 r13725">
  <metadata
     id="metadata9">
    <rdf:RDF>
      <cc:Work
         rdf:about="">
        <dc:format>image/svg+xml</dc:format>
        <dc:type
           rdf:resource="http://purl.org/dc/dcmitype/StillImage" />
        <dc:title></dc:title>
      </cc:Work>
    </rdf:RDF>
  </metadata>
  <defs
     id="defs7" />
  <sodipodi:namedview
     pagecolor="#ffffff"
     bordercolor="#666666"
     borderopacity="1"
     objecttolerance="10"
     gridtolerance="10"
     guidetolerance="10"
     inkscape:pageopacity="0"
     inkscape:pageshadow="2"
     inkscape:window-width="1366"
     inkscape:window-height="731"
     id="namedview5"
     showgrid="true"
     inkscape:zoom="28.643785"
     inkscape:cx="8.4455611"
     inkscape:cy="24.568283"
     inkscape:window-x="0"
     inkscape:window-y="37"
     inkscape:window-maximized="0"
     inkscape:current-layer="dec_115"
     showguides="true">
    <inkscape:grid
       type="xygrid"
       id="grid818" />
  </sodipodi:namedview>
  <path
     id="path2-5"
     style="fill:none;stroke:#000000;stroke-width:1;stroke-linecap:round;stroke-linejoin:round"
     d="m 6,8 c 2.1404694,0 4.256714,1.7125913 5,3 l 0,-1 C 11,10 9.250175,8 6,8 3.6895449,8.057784 2,9.2704834 2,11 c 0,2.343937 2.5753086,3.109762 5,4 2.7053383,0.884549 5,1.803956 5,4 M 8,22 C 4.4479857,22 3.7127387,20.933599 2,19 l 0,1 c 1.4732361,1.809135 3.9625498,1.995925 6,2 1.8840863,0 4,-0.975821 4,-3 C 12,15.810554 9.7266101,14.849749 7,14 5.1551408,13.354472 2,13.115032 2,11"
     inkscape:connector-curvature="0"
     sodipodi:nodetypes="cccccccccccccc" />
</svg>
