<svg xmlns:dc="http://purl.org/dc/elements/1.1/" xmlns:cc="http://creativecommons.org/ns#" xmlns:rdf="http://www.w3.org/1999/02/22-rdf-syntax-ns#" xmlns:svg="http://www.w3.org/2000/svg" xmlns="http://www.w3.org/2000/svg" xmlns:sodipodi="http://sodipodi.sourceforge.net/DTD/sodipodi-0.dtd" xmlns:inkscape="http://www.inkscape.org/namespaces/inkscape" data-dec="53" id="dec_67" width="15" height="40" version="1.1" sodipodi:docname="53.svg" inkscape:version="0.92.3 (2405546, 2018-03-11)">
  <metadata id="metadata9">
    <rdf:RDF>
      <cc:Work rdf:about="">
        <dc:format>image/svg+xml</dc:format>
        <dc:type rdf:resource="http://purl.org/dc/dcmitype/StillImage"/>
        <dc:title/>
      </cc:Work>
    </rdf:RDF>
  </metadata>
  <defs id="defs7"/>
  <sodipodi:namedview pagecolor="#ffffff" bordercolor="#666666" borderopacity="1" objecttolerance="10" gridtolerance="10" guidetolerance="10" inkscape:pageopacity="0" inkscape:pageshadow="2" inkscape:window-width="1403" inkscape:window-height="872" id="namedview5" showgrid="true" inkscape:zoom="14.301235" inkscape:cx="-9.3506178" inkscape:cy="24.933531" inkscape:window-x="37" inkscape:window-y="0" inkscape:window-maximized="1" inkscape:current-layer="dec_67" showguides="true" inkscape:guide-bbox="true">
    <inkscape:grid type="xygrid" id="grid7"/>
    <sodipodi:guide position="11,32" orientation="0,1" id="guide869" inkscape:locked="false"/>
    <sodipodi:guide position="10,38" orientation="0,1" id="guide840" inkscape:locked="false"/>
  </sodipodi:namedview>
  <g id="g901" transform="translate(-1)" style="stroke-linecap:round;stroke-linejoin:round"/>
  <path id="path859" style="fill:none;fill-rule:evenodd;stroke:#000000;stroke-width:1px;stroke-linecap:round;stroke-linejoin:round;stroke-opacity:1" d="M 4,9 5,2 M 8,10 4,9 m 0,0 5,1 2,1 M 5,2 h 7 m 0,1 1,-2 -2,1 -1,1 M 5,2 v 1 h 7 -7 M 3,19 v 1 M 2,19 v 0 0 l 1,1 M 3,19 H 2 l 2,2 2,1 h 2 l 2,-1 2,-2 1,-2 V 14 L 12,12 11,11 8,10 v 0 M 4,21 v 0 l 2,1 m 2,0 2,-1 v 0 l 2,-4 v -3 l -1,-2 -1,-1 -2,-1     " inkscape:connector-curvature="0" sodipodi:nodetypes="ccccccccccccccccccccccccccccccccccccccccccccccc"/>
</svg>