<svg xmlns:dc="http://purl.org/dc/elements/1.1/" xmlns:cc="http://creativecommons.org/ns#" xmlns:rdf="http://www.w3.org/1999/02/22-rdf-syntax-ns#" xmlns:svg="http://www.w3.org/2000/svg" xmlns="http://www.w3.org/2000/svg" xmlns:sodipodi="http://sodipodi.sourceforge.net/DTD/sodipodi-0.dtd" xmlns:inkscape="http://www.inkscape.org/namespaces/inkscape" data-dec="54" id="dec_67" width="17" height="40" version="1.1" sodipodi:docname="54.svg" inkscape:version="0.92.3 (2405546, 2018-03-11)">
  <metadata id="metadata9">
    <rdf:RDF>
      <cc:Work rdf:about="">
        <dc:format>image/svg+xml</dc:format>
        <dc:type rdf:resource="http://purl.org/dc/dcmitype/StillImage"/>
        <dc:title/>
      </cc:Work>
    </rdf:RDF>
  </metadata>
  <defs id="defs7"/>
  <sodipodi:namedview pagecolor="#ffffff" bordercolor="#666666" borderopacity="1" objecttolerance="10" gridtolerance="10" guidetolerance="10" inkscape:pageopacity="0" inkscape:pageshadow="2" inkscape:window-width="1403" inkscape:window-height="872" id="namedview5" showgrid="true" inkscape:zoom="7.1506173" inkscape:cx="9.3983058" inkscape:cy="38.050021" inkscape:window-x="37" inkscape:window-y="0" inkscape:window-maximized="1" inkscape:current-layer="dec_67" showguides="true" inkscape:guide-bbox="true">
    <inkscape:grid type="xygrid" id="grid7"/>
    <sodipodi:guide position="11,32" orientation="0,1" id="guide869" inkscape:locked="false"/>
  </sodipodi:namedview>
  <g id="g901" transform="translate(-1)">
    <path id="path2-9-3-7" style="fill:none;stroke:#000000;stroke-width:1;stroke-linecap:round;stroke-linejoin:round" d="M 5,5 4,9 v 0 0 5 0 1 l 1,4 m 0,0 v 0 0 L 4,17 3,14 V 10 L 4,7 5,5 6,4 8,2 11,1 M 9,9 7,10 6,11 m -2,6 1,2 2,2 2,1 h 2 l 2,-1 2,-2 1,-2 V 14 L 15,12 13,10 11,9 H 9 m 0,0 -2,1 m 0,11 v 0 l 2,1 m 2,0 2,-1 v 0 l 2,-4 v -3 l -1,-3 -1,-1 -2,-1     " inkscape:connector-curvature="0" sodipodi:nodetypes="cccccccccccccccccccccccccccccccccccccccccccccccc"/>
  </g>
</svg>