<svg xmlns:dc="http://purl.org/dc/elements/1.1/" xmlns:cc="http://creativecommons.org/ns#" xmlns:rdf="http://www.w3.org/1999/02/22-rdf-syntax-ns#" xmlns:svg="http://www.w3.org/2000/svg" xmlns="http://www.w3.org/2000/svg" xmlns:sodipodi="http://sodipodi.sourceforge.net/DTD/sodipodi-0.dtd" xmlns:inkscape="http://www.inkscape.org/namespaces/inkscape" data-dec="57" id="dec_67" width="17" height="40" version="1.1" sodipodi:docname="57.svg" inkscape:version="0.92.1 r15371">
  <metadata id="metadata9">
    <rdf:RDF>
      <cc:Work rdf:about="">
        <dc:format>image/svg+xml</dc:format>
        <dc:type rdf:resource="http://purl.org/dc/dcmitype/StillImage"/>
        <dc:title/>
      </cc:Work>
    </rdf:RDF>
  </metadata>
  <defs id="defs7"/>
  <sodipodi:namedview pagecolor="#ffffff" bordercolor="#666666" borderopacity="1" objecttolerance="10" gridtolerance="10" guidetolerance="10" inkscape:pageopacity="0" inkscape:pageshadow="2" inkscape:window-width="1920" inkscape:window-height="986" id="namedview5" showgrid="true" inkscape:zoom="14.301235" inkscape:cx="15.754781" inkscape:cy="24.747216" inkscape:window-x="0" inkscape:window-y="17" inkscape:window-maximized="1" inkscape:current-layer="dec_67" showguides="true" inkscape:guide-bbox="true">
    <inkscape:grid type="xygrid" id="grid7"/>
    <sodipodi:guide position="11,32" orientation="0,1" id="guide869" inkscape:locked="false"/>
  </sodipodi:namedview>
  <path sodipodi:nodetypes="cccccccccccccccccccccccccccccccccccccccccccccccc" inkscape:connector-curvature="0" d="m 13,18 1,-4 v 0 0 l 0,-5 v 0 -1 l -1,-4 m 0,0 v 0 0 l 1,2 1,3 v 4 l -1,3 -1,2 -1,1 -2,2 -3,1 m 2,-8 2,-1 1,-1 m 2,-6 -1,-2 -2,-2 -2,-1 H 7 l -2,1 -2,2 -1,2 v 3 l 1,2 2,2 2,1 h 2 m 0,0 2,-1 m 0,-11 v 0 l -2,-1 m -2,0 -2,1 v 0 l -2,4 v 3 l 1,3 1,1 2,1     " style="fill:none;stroke:#000000;stroke-width:1;stroke-linecap:round;stroke-linejoin:round" id="path2-9-3-7-3"/>
</svg>