<svg xmlns:dc="http://purl.org/dc/elements/1.1/" xmlns:cc="http://creativecommons.org/ns#" xmlns:rdf="http://www.w3.org/1999/02/22-rdf-syntax-ns#" xmlns:svg="http://www.w3.org/2000/svg" xmlns="http://www.w3.org/2000/svg" xmlns:sodipodi="http://sodipodi.sourceforge.net/DTD/sodipodi-0.dtd" xmlns:inkscape="http://www.inkscape.org/namespaces/inkscape" data-dec="63" id="dec_63" width="15" height="40" version="1.1" sodipodi:docname="63.svg" inkscape:version="0.92.3 (2405546, 2018-03-11)">
  <metadata id="metadata9">
    <rdf:RDF>
      <cc:Work rdf:about="">
        <dc:format>image/svg+xml</dc:format>
        <dc:type rdf:resource="http://purl.org/dc/dcmitype/StillImage"/>
        <dc:title/>
      </cc:Work>
    </rdf:RDF>
  </metadata>
  <defs id="defs7"/>
  <sodipodi:namedview pagecolor="#ffffff" bordercolor="#666666" borderopacity="1" objecttolerance="10" gridtolerance="10" guidetolerance="10" inkscape:pageopacity="0" inkscape:pageshadow="2" inkscape:window-width="1403" inkscape:window-height="872" id="namedview5" showgrid="true" inkscape:zoom="16.68772" inkscape:cx="-2.6936815" inkscape:cy="27.195148" inkscape:window-x="37" inkscape:window-y="0" inkscape:window-maximized="1" inkscape:current-layer="dec_63">
    <inkscape:grid type="xygrid" id="grid819"/>
  </sodipodi:namedview>
  <path id="path886" style="fill:none;fill-rule:evenodd;stroke:#000000;stroke-width:1px;stroke-linecap:round;stroke-linejoin:round;stroke-opacity:1" d="M 6,21 H 8 M 7,20 v 2 M 6,21 7,20 m 0,0 1,1 m 0,0 -1,1 m 0,0 -1,-1 m 2,-9 -1,1 -1,2 v 1 l 1,1 1,-1 v 0 m 0,-15 2,1 1,1 1,2 v 2 l -1,2 -1,1 -2,2 m 0,0 3,-2 1,-1 1,-2 V 5 L 12,3 11,2 8,1 H 6 L 4,2 3,3 2,5 V 6 L 3,7 4,6 3,5 V 4 L 4,2 M 8,16 7,15 v -1 l 1,-2     " inkscape:connector-curvature="0"/>
</svg>