<?xml version="1.0" encoding="UTF-8" standalone="no"?>
<svg
   xmlns:dc="http://purl.org/dc/elements/1.1/"
   xmlns:cc="http://creativecommons.org/ns#"
   xmlns:rdf="http://www.w3.org/1999/02/22-rdf-syntax-ns#"
   xmlns:svg="http://www.w3.org/2000/svg"
   xmlns="http://www.w3.org/2000/svg"
   xmlns:sodipodi="http://sodipodi.sourceforge.net/DTD/sodipodi-0.dtd"
   xmlns:inkscape="http://www.inkscape.org/namespaces/inkscape"
   data-dec="66"
   id="dec_66"
   width="20"
   height="40"
   version="1.1"
   sodipodi:docname="66.svg"
   inkscape:version="0.92.4 5da689c313, 2019-01-14">
  <metadata
     id="metadata9">
    <rdf:RDF>
      <cc:Work
         rdf:about="">
        <dc:format>image/svg+xml</dc:format>
        <dc:type
           rdf:resource="http://purl.org/dc/dcmitype/StillImage" />
        <dc:title />
      </cc:Work>
    </rdf:RDF>
  </metadata>
  <defs
     id="defs7" />
  <sodipodi:namedview
     pagecolor="#ffffff"
     bordercolor="#666666"
     borderopacity="1"
     objecttolerance="10"
     gridtolerance="10"
     guidetolerance="10"
     inkscape:pageopacity="0"
     inkscape:pageshadow="2"
     inkscape:window-width="1920"
     inkscape:window-height="1043"
     id="namedview5"
     showgrid="true"
     inkscape:zoom="30.769173"
     inkscape:cx="-12.504258"
     inkscape:cy="28.223969"
     inkscape:window-x="0"
     inkscape:window-y="37"
     inkscape:window-maximized="0"
     inkscape:current-layer="dec_66"
     showguides="false">
    <inkscape:grid
       type="xygrid"
       id="grid7" />
  </sodipodi:namedview>
  <path
     id="path957"
     style="fill:none;stroke:#000000;stroke-width:1;stroke-linecap:round;stroke-linejoin:round"
     d="M 4,1 V 22 M 5,1 v 21 m 5,-21 3,1 2,2 1,2 v 1 l -1,2 -2,1 -3,1 m -5,0 h 5 l 4,-1 2,-1 1,-2 V 6 L 16,4 14,2 10,1 H 2 3 L 4,2 M 4,21 3,22 H 2 6 m 4,-11 4,1 2,2 1,2 v 2 l -1,2 -1,1 -3,1 m -7,0 h 7 v 0 l 4,-1 1,-1 1,-2 V 16 L 17,14 15,12 10,11 H 5"
     inkscape:connector-curvature="0"
     sodipodi:nodetypes="ccccccccccccccccccccccccccccccccccccccccccccccc" />
</svg>
