<svg xmlns:dc="http://purl.org/dc/elements/1.1/" xmlns:cc="http://creativecommons.org/ns#" xmlns:rdf="http://www.w3.org/1999/02/22-rdf-syntax-ns#" xmlns:svg="http://www.w3.org/2000/svg" xmlns="http://www.w3.org/2000/svg" xmlns:sodipodi="http://sodipodi.sourceforge.net/DTD/sodipodi-0.dtd" xmlns:inkscape="http://www.inkscape.org/namespaces/inkscape" data-dec="71" id="dec_67" width="23" height="40" version="1.1" sodipodi:docname="71.svg" inkscape:version="0.92.3 (2405546, 2018-03-11)">
  <metadata id="metadata9">
    <rdf:RDF>
      <cc:Work rdf:about="">
        <dc:format>image/svg+xml</dc:format>
        <dc:type rdf:resource="http://purl.org/dc/dcmitype/StillImage"/>
        <dc:title/>
      </cc:Work>
    </rdf:RDF>
  </metadata>
  <defs id="defs7"/>
  <sodipodi:namedview pagecolor="#ffffff" bordercolor="#666666" borderopacity="1" objecttolerance="10" gridtolerance="10" guidetolerance="10" inkscape:pageopacity="0" inkscape:pageshadow="2" inkscape:window-width="1360" inkscape:window-height="730" id="namedview5" showgrid="false" inkscape:zoom="12.00864" inkscape:cx="-14.983538" inkscape:cy="27.583806" inkscape:window-x="37" inkscape:window-y="18" inkscape:window-maximized="0" inkscape:current-layer="dec_67"/>
  <path id="path2-9-3" style="fill:none;stroke:#000000;stroke-width:1;stroke-linecap:round;stroke-linejoin:round" d="M 10,1 7,2 5,4 4,6 3,9 v 5 l 1,3 1,2 2,2 3,1 m 10,-2 v -7 m -6,9 3,-1 2,-2 v -6 m 0,1 -1,-1 h -1 5 -1 l -1,1 M 14,1 17,2 20,5 V 3 L 18,2 14,1 H 10 L 6,2 4,4 3,6 2,9 v 5 l 1,3 1,2 2,2 4,1 h 4 l 4,-1 2,-1 2,-2 -2,1     "/>
</svg>