<svg xmlns:dc="http://purl.org/dc/elements/1.1/" xmlns:cc="http://creativecommons.org/ns#" xmlns:rdf="http://www.w3.org/1999/02/22-rdf-syntax-ns#" xmlns:svg="http://www.w3.org/2000/svg" xmlns="http://www.w3.org/2000/svg" xmlns:sodipodi="http://sodipodi.sourceforge.net/DTD/sodipodi-0.dtd" xmlns:inkscape="http://www.inkscape.org/namespaces/inkscape" data-dec="75" id="dec_67" width="22" height="40" version="1.1" sodipodi:docname="75.svg" inkscape:version="0.92.2 2405546, 2018-03-11">
  <metadata id="metadata9">
    <rdf:RDF>
      <cc:Work rdf:about="">
        <dc:format>image/svg+xml</dc:format>
        <dc:type rdf:resource="http://purl.org/dc/dcmitype/StillImage"/>
        <dc:title/>
      </cc:Work>
    </rdf:RDF>
  </metadata>
  <defs id="defs7"/>
  <sodipodi:namedview pagecolor="#ffffff" bordercolor="#666666" borderopacity="1" objecttolerance="10" gridtolerance="10" guidetolerance="10" inkscape:pageopacity="0" inkscape:pageshadow="2" inkscape:window-width="1360" inkscape:window-height="730" id="namedview5" showgrid="true" inkscape:zoom="34.972379" inkscape:cx="13.505802" inkscape:cy="25.034231" inkscape:window-x="4" inkscape:window-y="17" inkscape:window-maximized="0" inkscape:current-layer="dec_67" showguides="true" inkscape:lockguides="true">
    <inkscape:grid type="xygrid" id="grid843"/>
  </sodipodi:namedview>
  <path id="path866" style="fill:none;fill-rule:evenodd;stroke:#000000;stroke-width:1px;stroke-linecap:round;stroke-linejoin:round;stroke-opacity:1" d="M 17,22 9,11 M 18,22 10,11 M 18,2 5,15 M 4,1 V 22 M 4,21 3,22 H 2 7 M 5,1 v 21 m 0,-1 1,1 M 4,2 3,1 H 2 7 6 L 5,2 m 12,19 -1,1 h -1 5 m -3,-1 2,1 M 18,2 17,1 l -1,2e-7 L 20,1 h -1 l -1,1    " inkscape:connector-curvature="0" sodipodi:nodetypes="cccccccccccccccccccccccccccccccccc"/>
</svg>