<svg xmlns:dc="http://purl.org/dc/elements/1.1/" xmlns:cc="http://creativecommons.org/ns#" xmlns:rdf="http://www.w3.org/1999/02/22-rdf-syntax-ns#" xmlns:svg="http://www.w3.org/2000/svg" xmlns="http://www.w3.org/2000/svg" xmlns:sodipodi="http://sodipodi.sourceforge.net/DTD/sodipodi-0.dtd" xmlns:inkscape="http://www.inkscape.org/namespaces/inkscape" data-dec="77" id="dec_77" width="25" height="40" version="1.1" sodipodi:docname="77.svg" inkscape:version="0.92.2 5c3e80d, 2017-08-06">
  <metadata id="metadata9">
    <rdf:RDF>
      <cc:Work rdf:about="">
        <dc:format>image/svg+xml</dc:format>
        <dc:type rdf:resource="http://purl.org/dc/dcmitype/StillImage"/>
        <dc:title/>
      </cc:Work>
    </rdf:RDF>
  </metadata>
  <defs id="defs7"/>
  <sodipodi:namedview pagecolor="#ffffff" bordercolor="#666666" borderopacity="1" objecttolerance="10" gridtolerance="10" guidetolerance="10" inkscape:pageopacity="0" inkscape:pageshadow="2" inkscape:window-width="1364" inkscape:window-height="730" id="namedview5" showgrid="true" inkscape:zoom="16" inkscape:cx="1.793354" inkscape:cy="21.960584" inkscape:window-x="0" inkscape:window-y="18" inkscape:window-maximized="0" inkscape:current-layer="dec_77" showguides="true"/>
  <path inkscape:connector-curvature="0" d="M 6,1 4,22 M 7,1 12,19 M 6,1 12,22 M 18,1 12,22 M 18,1 20,22 M 19,1 21,22 M 7,1 H 4 l 1,-2e-7 1,1 M 18,1 h 3 l -1,-2e-7 -1,1 M 20,21 19,22 h -1 5 -1 L 21,21 M 4,21 5,22 H 6 2 3 l 1,-1     " style="fill:none;stroke:#000000;stroke-width:1;stroke-linecap:round;stroke-linejoin:round" id="path2-2" sodipodi:nodetypes="cccccccccccccccccccccccccccccccc"/>
</svg>