<svg xmlns:dc="http://purl.org/dc/elements/1.1/" xmlns:cc="http://creativecommons.org/ns#" xmlns:rdf="http://www.w3.org/1999/02/22-rdf-syntax-ns#" xmlns:svg="http://www.w3.org/2000/svg" xmlns="http://www.w3.org/2000/svg" xmlns:sodipodi="http://sodipodi.sourceforge.net/DTD/sodipodi-0.dtd" xmlns:inkscape="http://www.inkscape.org/namespaces/inkscape" data-dec="81" id="dec_67" width="24" height="40" version="1.1" sodipodi:docname="81.svg" inkscape:version="0.92.3 (2405546, 2018-03-11)">
  <metadata id="metadata9">
    <rdf:RDF>
      <cc:Work rdf:about="">
        <dc:format>image/svg+xml</dc:format>
        <dc:type rdf:resource="http://purl.org/dc/dcmitype/StillImage"/>
        <dc:title/>
      </cc:Work>
    </rdf:RDF>
  </metadata>
  <defs id="defs7"/>
  <sodipodi:namedview pagecolor="#ffffff" bordercolor="#666666" borderopacity="1" objecttolerance="10" gridtolerance="10" guidetolerance="10" inkscape:pageopacity="0" inkscape:pageshadow="2" inkscape:window-width="1403" inkscape:window-height="872" id="namedview5" showgrid="true" inkscape:zoom="4.220963" inkscape:cx="-67.177917" inkscape:cy="-2.0942533" inkscape:window-x="37" inkscape:window-y="0" inkscape:window-maximized="1" inkscape:current-layer="dec_67" showguides="false">
    <inkscape:grid type="xygrid" id="grid7"/>
  </sodipodi:namedview>
  <path id="path856" style="fill:none;fill-rule:evenodd;stroke:#000000;stroke-width:1px;stroke-linecap:round;stroke-linejoin:round;stroke-opacity:1" d="m 11,22 5,4 4,1 2,-1 -2,1 -4,-1 -4,-4 h -2 l -3,1 -1,1 m 8,-23 3,1 2,2 1,2 1,3 v 5 l -1,3 -1,2 -2,2 -3,1 M 10,1 7,2 5,4 4,6 3,9 v 5 l 1,3 1,2 2,2 3,1 m 11,-5 -1,2 -2,2 -4,1 H 10 L 6,21 4,19 3,17 2,14 V 9 L 3,6 4,4 6,2 10,1 h 4 l 4,1 2,2 1,2 1,3 v 5 l -1,3     " inkscape:connector-curvature="0"/>
</svg>