<svg xmlns:dc="http://purl.org/dc/elements/1.1/" xmlns:cc="http://creativecommons.org/ns#" xmlns:rdf="http://www.w3.org/1999/02/22-rdf-syntax-ns#" xmlns:svg="http://www.w3.org/2000/svg" xmlns="http://www.w3.org/2000/svg" xmlns:sodipodi="http://sodipodi.sourceforge.net/DTD/sodipodi-0.dtd" xmlns:inkscape="http://www.inkscape.org/namespaces/inkscape" data-dec="82" id="dec_82" width="19" height="40" version="1.1" sodipodi:docname="82.svg" inkscape:version="0.92.3 (2405546, 2018-03-11)">
  <metadata id="metadata9">
    <rdf:RDF>
      <cc:Work rdf:about="">
        <dc:format>image/svg+xml</dc:format>
        <dc:type rdf:resource="http://purl.org/dc/dcmitype/StillImage"/>
        <dc:title/>
      </cc:Work>
    </rdf:RDF>
  </metadata>
  <defs id="defs7"/>
  <sodipodi:namedview pagecolor="#ffffff" bordercolor="#666666" borderopacity="1" objecttolerance="10" gridtolerance="10" guidetolerance="10" inkscape:pageopacity="0" inkscape:pageshadow="2" inkscape:window-width="1360" inkscape:window-height="730" id="namedview5" showgrid="true" showguides="true" inkscape:zoom="8.3927498" inkscape:cx="-32.723049" inkscape:cy="23.200644" inkscape:window-x="37" inkscape:window-y="18" inkscape:window-maximized="0" inkscape:current-layer="dec_82">
    <inkscape:grid type="xygrid" id="grid828"/>
  </sodipodi:namedview>
  <path id="path957-2" style="fill:none;stroke:#000000;stroke-width:1;stroke-linecap:round;stroke-linejoin:round" d="M 4,1 V 22 M 5,1 v 21 m 5,-21 3,1 2,2 1,2 v 2 l -1,2 -2,1 -3,1 m -5,0 h 5 l 4,-1 2,-1 1,-2 V 6 L 16,4 14,2 10,1 H 2 3 L 4,2 M 4,21 3,22 H 2 7 6 L 5,21 m 6,-9 1,3 1,2 2,3 2,2 -3,-2 -2,-3 -1,-2 -1,-3     "/>
</svg>