<svg xmlns:dc="http://purl.org/dc/elements/1.1/" xmlns:cc="http://creativecommons.org/ns#" xmlns:rdf="http://www.w3.org/1999/02/22-rdf-syntax-ns#" xmlns:svg="http://www.w3.org/2000/svg" xmlns="http://www.w3.org/2000/svg" xmlns:sodipodi="http://sodipodi.sourceforge.net/DTD/sodipodi-0.dtd" xmlns:inkscape="http://www.inkscape.org/namespaces/inkscape" data-dec="8221" id="dec_39" width="10" height="40" version="1.1" sodipodi:docname="8221.svg" inkscape:version="0.92.3 (2405546, 2018-03-11)">
  <metadata id="metadata9">
    <rdf:RDF>
      <cc:Work rdf:about="">
        <dc:format>image/svg+xml</dc:format>
        <dc:type rdf:resource="http://purl.org/dc/dcmitype/StillImage"/>
        <dc:title/>
      </cc:Work>
    </rdf:RDF>
  </metadata>
  <defs id="defs7"/>
  <sodipodi:namedview pagecolor="#ffffff" bordercolor="#666666" borderopacity="1" objecttolerance="10" gridtolerance="10" guidetolerance="10" inkscape:pageopacity="0" inkscape:pageshadow="2" inkscape:window-width="1360" inkscape:window-height="730" id="namedview5" showgrid="true" showguides="true" inkscape:zoom="11.44668" inkscape:cx="2.3268503" inkscape:cy="36.328692" inkscape:window-x="80" inkscape:window-y="18" inkscape:window-maximized="0" inkscape:current-layer="dec_39">
    <inkscape:grid type="xygrid" id="grid836"/>
  </sodipodi:namedview>
  <path id="path824-8" style="fill:none;fill-rule:evenodd;stroke:#000000;stroke-width:1px;stroke-linecap:round;stroke-linejoin:round;stroke-opacity:1" d="m 7,4 -1,1 m 2,-3 v 1 l -1,1 v 0 -1 m 0,0 -1,-1 m 2,0 -1,1 M 7,1 8,2 m -2,0 1,-1 m 0,0 v 2 m -1,-1 h 2 m -5,2 -1,1 m 2,-3 v 1 l -1,1 v 0 -1 m 0,0 -1,-1 m 2,0 -1,1 M 3,1 4,2 m -2,0 1,-1 m 0,0 v 2 m -1,-1 h 2     "/>
</svg>