<svg xmlns:dc="http://purl.org/dc/elements/1.1/" xmlns:cc="http://creativecommons.org/ns#" xmlns:rdf="http://www.w3.org/1999/02/22-rdf-syntax-ns#" xmlns:svg="http://www.w3.org/2000/svg" xmlns="http://www.w3.org/2000/svg" xmlns:sodipodi="http://sodipodi.sourceforge.net/DTD/sodipodi-0.dtd" xmlns:inkscape="http://www.inkscape.org/namespaces/inkscape" data-dec="83" id="dec_85" width="17" height="40" version="1.1" sodipodi:docname="83.svg" inkscape:version="0.92.2 2405546, 2018-03-11">
  <metadata id="metadata9">
    <rdf:RDF>
      <cc:Work rdf:about="">
        <dc:format>image/svg+xml</dc:format>
        <dc:type rdf:resource="http://purl.org/dc/dcmitype/StillImage"/>
        <dc:title/>
      </cc:Work>
    </rdf:RDF>
  </metadata>
  <defs id="defs7"/>
  <sodipodi:namedview pagecolor="#ffffff" bordercolor="#666666" borderopacity="1" objecttolerance="10" gridtolerance="10" guidetolerance="10" inkscape:pageopacity="0" inkscape:pageshadow="2" inkscape:window-width="1320" inkscape:window-height="768" id="namedview5" showgrid="true" inkscape:zoom="8.4419265" inkscape:cx="3.3848889" inkscape:cy="5.9372984" inkscape:window-x="11" inkscape:window-y="17" inkscape:window-maximized="0" inkscape:current-layer="dec_85" showguides="true" inkscape:guide-bbox="true">
    <inkscape:grid type="xygrid" id="grid827"/>
    <sodipodi:guide position="5,29" orientation="1,0" id="guide848" inkscape:locked="false"/>
    <sodipodi:guide position="18,29" orientation="1,0" id="guide850" inkscape:locked="false"/>
    <sodipodi:guide position="9,39" orientation="0,1" id="guide852" inkscape:locked="false"/>
    <sodipodi:guide position="13,18" orientation="0,1" id="guide854" inkscape:locked="false"/>
  </sodipodi:namedview>
  <path id="path819-3" style="fill:none;fill-rule:evenodd;stroke:#000000;stroke-width:1px;stroke-linecap:round;stroke-linejoin:round;stroke-opacity:1" d="m 2,6 1,2 3,2 5,1 3,2 1,2 v 3 0 l -1,2 -1,1 -3,1 H 8 L 5,21 3,20 2,19 v -3 l 1,3 2,2 m 5,-20 2,1 1,1 1,3 V 3 L 13,2 10,1 H 6 L 4,2 3,3 2,5 v 2 l 1,2 3,2 5,1 3,2 1,2     " inkscape:connector-curvature="0" sodipodi:nodetypes="ccccccccccccccccccccccccccccccccccc"/>
</svg>