<svg xmlns:dc="http://purl.org/dc/elements/1.1/" xmlns:cc="http://creativecommons.org/ns#" xmlns:rdf="http://www.w3.org/1999/02/22-rdf-syntax-ns#" xmlns:svg="http://www.w3.org/2000/svg" xmlns="http://www.w3.org/2000/svg" xmlns:sodipodi="http://sodipodi.sourceforge.net/DTD/sodipodi-0.dtd" xmlns:inkscape="http://www.inkscape.org/namespaces/inkscape" data-dec="87" id="dec_65" width="28" height="40" version="1.1" sodipodi:docname="87.svg" inkscape:version="0.92.3 (2405546, 2018-03-11)">
  <metadata id="metadata9">
    <rdf:RDF>
      <cc:Work rdf:about="">
        <dc:format>image/svg+xml</dc:format>
        <dc:type rdf:resource="http://purl.org/dc/dcmitype/StillImage"/>
        <dc:title/>
      </cc:Work>
    </rdf:RDF>
  </metadata>
  <defs id="defs7"/>
  <sodipodi:namedview pagecolor="#ffffff" bordercolor="#666666" borderopacity="1" objecttolerance="10" gridtolerance="10" guidetolerance="10" inkscape:pageopacity="0" inkscape:pageshadow="2" inkscape:window-width="1403" inkscape:window-height="872" id="namedview5" showgrid="true" inkscape:zoom="17.576354" inkscape:cx="4.3109288" inkscape:cy="26.244669" inkscape:window-x="37" inkscape:window-y="0" inkscape:window-maximized="1" inkscape:current-layer="dec_65" showguides="true" inkscape:guide-bbox="true">
    <inkscape:grid type="xygrid" id="grid812"/>
    <sodipodi:guide position="8,18" orientation="0,1" id="guide835" inkscape:locked="false"/>
    <sodipodi:guide position="11,39" orientation="0,1" id="guide837" inkscape:locked="false"/>
  </sodipodi:namedview>
  <path id="path2-0-3" style="fill:none;stroke:#000000;stroke-width:1;stroke-linecap:round;stroke-linejoin:round" d="m 17,22 7,-21 m -7,21 -7,-21 m 7,19 -6,-19 m 13,1 1,-1 h 1 -4 1 l 1,1 -1,2 m -12,0 -1,-2 -1,-1 h -1 5 -1 l -1,1 m -1,20 7,-21 M 10,22 3,1 M 10,20 4,1 m 13,1 1,-1 h 1 -4 1 l 1,1 -1,2 m -12,0 -1,-2 -1,-1 H 1 6 5 l -1,1     " inkscape:connector-curvature="0"/>
</svg>