<?xml version="1.0" encoding="UTF-8" standalone="no"?>
<svg
   xmlns:dc="http://purl.org/dc/elements/1.1/"
   xmlns:cc="http://creativecommons.org/ns#"
   xmlns:rdf="http://www.w3.org/1999/02/22-rdf-syntax-ns#"
   xmlns:svg="http://www.w3.org/2000/svg"
   xmlns="http://www.w3.org/2000/svg"
   xmlns:sodipodi="http://sodipodi.sourceforge.net/DTD/sodipodi-0.dtd"
   xmlns:inkscape="http://www.inkscape.org/namespaces/inkscape"
   data-dec="97"
   width="17"
   height="40"
   version="1.1"
   id="svg1368"
   sodipodi:docname="97.svg"
   inkscape:version="0.92.4 5da689c313, 2019-01-14">
  <metadata
     id="metadata1374">
    <rdf:RDF>
      <cc:Work
         rdf:about="">
        <dc:format>image/svg+xml</dc:format>
        <dc:type
           rdf:resource="http://purl.org/dc/dcmitype/StillImage" />
        <dc:title />
      </cc:Work>
    </rdf:RDF>
  </metadata>
  <defs
     id="defs1372" />
  <sodipodi:namedview
     pagecolor="#ffffff"
     bordercolor="#666666"
     borderopacity="1"
     objecttolerance="10"
     gridtolerance="10"
     guidetolerance="10"
     inkscape:pageopacity="0"
     inkscape:pageshadow="2"
     inkscape:window-width="1920"
     inkscape:window-height="1043"
     id="namedview1370"
     showgrid="false"
     inkscape:zoom="41.976851"
     inkscape:cx="-3.9911579"
     inkscape:cy="22.449109"
     inkscape:window-x="0"
     inkscape:window-y="37"
     inkscape:window-maximized="0"
     inkscape:current-layer="svg1368" />
  <path
     d="M 7,8 5,9 4,12 H 3 v 0 0 -1 L 5,9 7,8 h 3 l 1,1 1,1 v 2 7 2 l 1,1 m -2,-9 v 0 l -5,1 -3,2 -1,2 v 2 l 2,2 h 3 l 2,-1 2,-2 M 6,14 4,16 3,18 v 2 l 1,2 m 11,-1 -2,1 -2,-1 V 20 19 10 L 10,8"
     style="fill:none;stroke:#013272;stroke-width:1;stroke-linecap:round;stroke-linejoin:round"
     id="path1366"
     inkscape:connector-curvature="0"
     sodipodi:nodetypes="cccccccccccccccccccccccccccccccccccccc" />
</svg>
