<svg xmlns="http://www.w3.org/2000/svg" xmlns:xlink="http://www.w3.org/1999/xlink" version="1.1" width="30.685028000000067" height="161.79296500000004" viewBox="33 144 30 161">
<!-- Original BoundingBox: 0.000000 -125.528961 237.110260 320.796234 -->
  <path d="M33.474304 306.052338L33.474304 159.601883C33.474304 139.145203,64.159332 139.145203,64.159332 159.601883L64.159332 306.052338C64.159332 326.509018,33.474304 326.509018,33.474304 306.052338Z" style="fill: rgb(0.000000%,0.000000%,0.000000%);stroke: none;"/>
  <path d="M159.003265 278.157013L159.003265 152.628052C159.003265 132.171371,189.688293 132.171371,189.688293 152.628052L189.688293 278.157013C189.688293 298.613693,159.003265 298.613693,159.003265 278.157013Z" style="fill: rgb(0.000000%,0.000000%,0.000000%);stroke: none;"/>
  <path d="M58.022293 306.052338C64.957611 226.783096,68.478989 133.938202,139.476624 133.938202C150.112076 133.938202,159.003265 142.150299,159.003265 152.628052C159.003265 173.084732,189.688293 173.084732,189.688293 152.628052C189.688293 129.312317,165.113953 115.527237,139.476624 115.527237C60.063934 115.527237,47.422485 216.772308,39.611328 306.052338C38.636505 317.194290,56.861389 319.321152,58.022293 306.052338Z" style="fill: rgb(0.000000%,0.000000%,0.000000%);stroke: none;"/>
  <path d="M159.003265 250.959152C159.003265 286.034286,172.753662 321.740448,203.709381 322.092316C215.582748 322.227280,226.480484 315.538086,231.734909 304.889786C237.823273 292.551437,233.702484 280.703278,228.537933 286.758621C222.391281 293.965454,212.046951 295.902222,203.709381 291.407288C190.258301 284.155563,189.688293 266.680496,189.688293 250.959152C189.688293 230.502472,159.003265 230.502472,159.003265 250.959152Z" style="fill: rgb(0.000000%,0.000000%,0.000000%);stroke: none;"/>
</svg>