<svg xmlns="http://www.w3.org/2000/svg" xmlns:xlink="http://www.w3.org/1999/xlink" version="1.1" width="425.603027" height="851.206055" viewBox="12 0 425 851">
<!-- Original BoundingBox: -12.528625 -239.401703 425.603027 611.804352 -->
  <g transform="matrix(0.681995,-0.731357,0.731357,0.681995,0.000000,0.000000)">
    <path d="M141.548496 248.123049L-208.627923 574.664461L-190.486738 594.118702L159.689681 267.577290" style="stroke:rgb(100.000000%,0.000000%,0.000000%); stroke-width: 26.600062;stroke-linecap: round;stroke-linejoin: round;stroke-miterlimit: 10.000000;fill: none;"/>
  </g>
  <g transform="matrix(0.681995,-0.731357,0.731357,0.681995,0.000000,0.000000)">
    <path d="M-23.812593 402.323163C-11.333036 360.981271,-24.549864 316.174363,-57.468852 288.223831C-114.890820 239.468526,-198.438381 257.925641,-264.900220 299.799738C-349.751421 353.259993,-396.163156 451.562503,-338.242329 513.675629C-253.863856 604.161399,-128.981184 500.393445,-23.812593 402.323163C-128.981184 500.393445,-253.863856 604.161399,-338.242329 513.675629C-392.273208 455.734004,-331.985430 369.953040,-246.759035 319.253978C-174.451187 276.239838,-86.073701 247.844998,-39.327667 307.678071C-18.358285 334.518052,-12.510152 370.192900,-23.812593 402.323163" style="stroke:rgb(100.000000%,0.000000%,0.000000%); stroke-width: 26.600062;stroke-linecap: round;stroke-linejoin: round;stroke-miterlimit: 10.000000;fill: none;"/>
  </g>
  <g transform="matrix(0.681995,-0.731357,0.731357,0.681995,0.000000,0.000000)">
    <path d="M-189.173638 556.523235L-171.032453 575.977475L-223.558846 624.958623L-125.679490 624.613077C-190.248732 627.996160,-274.184195 635.796041,-232.945718 597.340937L-189.173638 556.523235" style="stroke:rgb(100.000000%,0.000000%,0.000000%); stroke-width: 26.600062;stroke-linecap: round;stroke-linejoin: round;stroke-miterlimit: 10.000000;fill: none;"/>
  </g>
  <path d="M278.001892 256.493912C238.208069 224.360962,183.924896 216.823868,136.882004 236.899750C65.392822 267.408249,33.441406 346.085007,25.300095 424.798676C15.169968 522.741150,56.876419 621.397614,142.229568 621.397614C262.798935 621.397614,296.622147 471.658066,296.622147 331.698013C296.622147 310.417908,264.701996 310.417908,264.701996 331.698013C264.701996 453.732925,252.605408 589.962570,147.772339 589.962570C81.861328 589.962570,66.360825 504.845749,78.500473 424.798676C87.628479 364.609863,96.445633 298.781860,147.799515 266.895035C190.456894 240.408066,246.135361 249.610245,278.001892 288.414062C288.123428 300.739029,299.640915 273.967117,278.001892 256.493912Z" style="fill: rgb(0.000000%,0.000000%,0.000000%);stroke: none;"/>
  <path d="M264.701797 584.399811L264.701797 78.996216C264.701797 43.529297,317.902176 43.529297,317.902176 78.996216L317.902176 584.399811C317.902176 619.866730,264.701797 619.866730,264.701797 584.399811Z" style="fill: rgb(0.000000%,0.000000%,0.000000%);stroke: none;"/>
  <path d="M11.744003 461.089996L-0.225998 401.239578C-3.402527 385.356857,19.366058 397.457672,24.226013 421.757584L36.196014 481.608002C39.372543 497.490723,16.603958 485.389908,11.744003 461.089996Z" style="fill: rgb(0.000000%,0.000000%,0.000000%);stroke: none;"/>
</svg>