<svg xmlns="http://www.w3.org/2000/svg" xmlns:xlink="http://www.w3.org/1999/xlink" version="1.1" width="505.403595" height="851.206055" viewBox="0 0 505 851">
<!-- Original BoundingBox: 0.000000 -239.401703 505.403595 611.804352 -->
  <path d="M172.901230 584.399811L172.901230 78.996216C172.901230 43.529297,226.101608 43.529297,226.101608 78.996216L226.101608 584.399811C226.101608 619.866730,172.901230 619.866730,172.901230 584.399811Z" style="fill: rgb(0.000000%,0.000000%,0.000000%);stroke: none;"/>
  <path d="M332.502365 443.418732L438.903122 589.719772C451.544174 607.101227,412.778702 626.949219,385.702744 589.719772L279.301987 443.418732C266.660934 426.037277,305.426407 406.189285,332.502365 443.418732Z" style="fill: rgb(0.000000%,0.000000%,0.000000%);stroke: none;"/>
  <path d="M202.161392 451.398865C319.688431 451.398865,414.962906 356.124390,414.962906 238.597351C414.962906 217.317245,383.042755 217.317245,383.042755 238.597351C383.042755 356.124390,287.768280 451.398865,170.241241 451.398865C142.385223 451.398865,184.945435 451.398865,202.161392 451.398865Z" style="fill: rgb(0.000000%,0.000000%,0.000000%);stroke: none;"/>
</svg>