<svg xmlns="http://www.w3.org/2000/svg" xmlns:xlink="http://www.w3.org/1999/xlink" version="1.1" width="212.801514" height="851.206055" viewBox="12 0 212 851">
<!-- Original BoundingBox: -12.528625 -239.401703 212.801514 611.804352 -->
  <g transform="matrix(0.681995,-0.731357,0.731357,0.681995,0.000000,0.000000)">
    <path d="M14.560202 111.943365L-335.616217 438.484778L-317.475033 457.939018L32.701387 131.397606" style="stroke:rgb(100.000000%,0.000000%,0.000000%); stroke-width: 26.600062;stroke-linecap: round;stroke-linejoin: round;stroke-miterlimit: 10.000000;fill: none;"/>
  </g>
  <g transform="matrix(0.681995,-0.731357,0.731357,0.681995,0.000000,0.000000)">
    <path d="M-316.161932 420.343551L-298.020747 439.797792L-350.547141 488.778939L-252.667785 488.433393C-317.237027 491.816477,-401.172490 499.616357,-359.934013 461.161254L-316.161932 420.343551" style="stroke:rgb(100.000000%,0.000000%,0.000000%); stroke-width: 26.600062;stroke-linecap: round;stroke-linejoin: round;stroke-miterlimit: 10.000000;fill: none;"/>
  </g>
  <path d="M78.500473 584.399811L78.500473 78.996216C78.500473 43.529297,131.700851 43.529297,131.700851 78.996216L131.700851 584.399811C131.700851 619.866730,78.500473 619.866730,78.500473 584.399811Z" style="fill: rgb(0.000000%,0.000000%,0.000000%);stroke: none;"/>
  <path d="M11.744003 461.089996L-0.225998 401.239578C-3.402527 385.356857,19.366058 397.457672,24.226013 421.757584L36.196014 481.608002C39.372543 497.490723,16.603958 485.389908,11.744003 461.089996Z" style="fill: rgb(0.000000%,0.000000%,0.000000%);stroke: none;"/>
</svg>