<svg xmlns="http://www.w3.org/2000/svg" xmlns:xlink="http://www.w3.org/1999/xlink" version="1.1" width="718.205109" height="851.206055" viewBox="12 0 718 851">
<!-- Original BoundingBox: -12.528625 -239.401703 718.205109 611.804352 -->
  <g transform="matrix(0.681995,-0.731357,0.731357,0.681995,0.000000,0.000000)">
    <path d="M-121.619482 238.931660L-374.524699 474.767147L-356.383514 494.221388L-103.478297 258.385901" style="stroke:rgb(100.000000%,0.000000%,0.000000%); stroke-width: 26.600062;stroke-linecap: round;stroke-linejoin: round;stroke-miterlimit: 10.000000;fill: none;"/>
  </g>
  <g transform="matrix(0.681995,-0.731357,0.731357,0.681995,0.000000,0.000000)">
    <path d="M-307.747868 448.868384C-198.519634 363.531183,-68.577446 276.311198,15.095888 366.040793C42.344358 395.261503,56.556477 436.491550,30.610962 460.685884C17.641468 472.780008,-0.499717 453.325767,12.469777 441.231644C33.958339 421.193443,35.134089 387.529355,15.095888 366.040793" style="stroke:rgb(100.000000%,0.000000%,0.000000%); stroke-width: 26.600062;stroke-linecap: round;stroke-linejoin: round;stroke-miterlimit: 10.000000;fill: none;"/>
  </g>
  <g transform="matrix(0.681995,-0.731357,0.731357,0.681995,0.000000,0.000000)">
    <path d="M12.469821 441.231602L-211.254034 649.855312L-193.112849 669.309553L30.611006 460.685843" style="stroke:rgb(100.000000%,0.000000%,0.000000%); stroke-width: 26.600062;stroke-linecap: round;stroke-linejoin: round;stroke-miterlimit: 10.000000;fill: none;"/>
  </g>
  <g transform="matrix(0.681995,-0.731357,0.731357,0.681995,0.000000,0.000000)">
    <path d="M-144.477203 623.956549C-35.248970 538.619348,94.693218 451.399363,178.366552 541.128958C205.615023 570.349667,219.827142 611.579715,193.881626 635.774049C180.912132 647.868173,162.770947 628.413932,175.740441 616.319809C197.229003 596.281608,198.404753 562.617520,178.366552 541.128958" style="stroke:rgb(100.000000%,0.000000%,0.000000%); stroke-width: 26.600062;stroke-linecap: round;stroke-linejoin: round;stroke-miterlimit: 10.000000;fill: none;"/>
  </g>
  <g transform="matrix(0.681995,-0.731357,0.731357,0.681995,0.000000,0.000000)">
    <path d="M175.740486 616.319767L-9.074889 788.661107L9.066296 808.115348L193.881671 635.774008" style="stroke:rgb(100.000000%,0.000000%,0.000000%); stroke-width: 26.600062;stroke-linecap: round;stroke-linejoin: round;stroke-miterlimit: 10.000000;fill: none;"/>
  </g>
  <g transform="matrix(0.681995,-0.731357,0.731357,0.681995,0.000000,0.000000)">
    <path d="M10.379397 770.519881L28.520581 789.974121L-24.005812 838.955269L73.873544 838.609723C9.304302 841.992806,-74.631161 849.792687,-33.392684 811.337583L10.379397 770.519881" style="stroke:rgb(100.000000%,0.000000%,0.000000%); stroke-width: 26.600062;stroke-linecap: round;stroke-linejoin: round;stroke-miterlimit: 10.000000;fill: none;"/>
  </g>
  <g transform="matrix(0.681995,-0.731357,0.731357,0.681995,0.000000,0.000000)">
    <path d="M-152.113943 303.738905L-170.255128 284.284664L-117.728735 235.303517L-215.608091 235.649063C-151.038849 232.265979,-67.103386 224.466098,-108.341863 262.921202L-152.113943 303.738905" style="stroke:rgb(100.000000%,0.000000%,0.000000%); stroke-width: 26.600062;stroke-linecap: round;stroke-linejoin: round;stroke-miterlimit: 10.000000;fill: none;"/>
  </g>
  <path d="M78.500473 584.399811L78.500473 251.897446C78.500473 216.430527,131.700851 216.430527,131.700851 251.897446L131.700851 584.399811C131.700851 619.866730,78.500473 619.866730,78.500473 584.399811Z" style="fill: rgb(0.000000%,0.000000%,0.000000%);stroke: none;"/>
  <path d="M317.902176 584.399811L317.902176 291.797729C317.902176 256.330811,371.102554 256.330811,371.102554 291.797729L371.102554 584.399811C371.102554 619.866730,317.902176 619.866730,317.902176 584.399811Z" style="fill: rgb(0.000000%,0.000000%,0.000000%);stroke: none;"/>
  <path d="M121.060730 584.399811C134.363434 432.352661,141.889069 254.557419,278.001892 254.557419C299.570877 254.557419,317.902176 270.729019,317.902176 291.797729C317.902176 327.264648,371.102554 327.264648,371.102554 291.797729C371.102554 248.458466,325.589828 222.637268,278.001892 222.637268C127.297043 222.637268,103.961761 414.996704,89.140579 584.399811C87.450485 603.717255,119.048019 607.404724,121.060730 584.399811Z" style="fill: rgb(0.000000%,0.000000%,0.000000%);stroke: none;"/>
  <path d="M11.744003 461.089996L-0.225998 401.239578C-3.402527 385.356857,19.366058 397.457672,24.226013 421.757584L36.196014 481.608002C39.372543 497.490723,16.603958 485.389908,11.744003 461.089996Z" style="fill: rgb(0.000000%,0.000000%,0.000000%);stroke: none;"/>
</svg>