<svg xmlns="http://www.w3.org/2000/svg" xmlns:xlink="http://www.w3.org/1999/xlink" version="1.1" width="372.402649" height="851.206055" viewBox="0 0 372 851">
<!-- Original BoundingBox: 0.000000 -239.401703 385.702682 611.804352 -->
  <g transform="matrix(0.681995,-0.731357,0.731357,0.681995,0.000000,0.000000)">
    <path d="M-29.370417 318.356025C-93.070517 250.045323,-202.475622 261.551605,-274.397210 328.618876C-346.318799 395.686148,-365.429885 504.021912,-301.729784 572.332614C-378.139787 490.392070,-314.139112 356.140864,-187.915595 304.349456C-132.898096 281.774955,-68.500189 276.394047,-29.370417 318.356025" style="stroke:rgb(100.000000%,0.000000%,0.000000%); stroke-width: 26.600062;stroke-linecap: round;stroke-linejoin: round;stroke-miterlimit: 10.000000;fill: none;"/>
  </g>
  <g transform="matrix(0.681995,-0.731357,0.731357,0.681995,0.000000,0.000000)">
    <path d="M-301.729784 572.332614C-238.029684 640.643316,-128.624580 629.137035,-56.702991 562.069763C15.218598 495.002491,34.329684 386.666727,-29.370417 318.356025C47.039586 400.296569,-16.961090 534.547776,-143.184607 586.339184C-198.202106 608.913685,-262.600012 614.294592,-301.729784 572.332614" style="stroke:rgb(100.000000%,0.000000%,0.000000%); stroke-width: 26.600062;stroke-linecap: round;stroke-linejoin: round;stroke-miterlimit: 10.000000;fill: none;"/>
  </g>
  <path d="M212.801514 254.557419C143.971161 254.557419,102.461517 324.539749,93.100662 398.198486C80.594833 496.604431,126.163986 595.039932,212.801514 595.039932C234.081619 595.039932,234.081619 626.960083,212.801514 626.960083C101.461121 626.960083,25.767029 516.049255,39.900284 398.198486C51.302658 303.119217,120.448868 222.637268,212.801514 222.637268C234.081619 222.637268,234.081619 254.557419,212.801514 254.557419Z" style="fill: rgb(0.000000%,0.000000%,0.000000%);stroke: none;"/>
</svg>