<svg xmlns="http://www.w3.org/2000/svg" xmlns:xlink="http://www.w3.org/1999/xlink" version="1.1" width="399.002838" height="851.206055" viewBox="0 0 399 851">
<!-- Original BoundingBox: 0.000000 -239.401703 399.002838 611.804352 -->
  <g transform="matrix(0.681995,-0.731357,0.731357,0.681995,0.000000,0.000000)">
    <path d="M-129.803417 230.155373L-382.708634 465.990861L-364.567449 485.445101L-111.662232 249.609614" style="stroke:rgb(100.000000%,0.000000%,0.000000%); stroke-width: 26.600062;stroke-linecap: round;stroke-linejoin: round;stroke-miterlimit: 10.000000;fill: none;"/>
  </g>
  <g transform="matrix(0.681995,-0.731357,0.731357,0.681995,0.000000,0.000000)">
    <path d="M-315.931803 440.092097C-206.703569 354.754897,-76.761381 267.534912,6.911953 357.264506C34.160423 386.485216,48.372542 427.715263,22.427027 451.909598C9.457533 464.003721,-8.683652 444.549481,4.285842 432.455357C25.774404 412.417156,26.950154 378.753068,6.911953 357.264506" style="stroke:rgb(100.000000%,0.000000%,0.000000%); stroke-width: 26.600062;stroke-linecap: round;stroke-linejoin: round;stroke-miterlimit: 10.000000;fill: none;"/>
  </g>
  <g transform="matrix(0.681995,-0.731357,0.731357,0.681995,0.000000,0.000000)">
    <path d="M-160.297878 294.962618L-178.439063 275.508377L-125.912670 226.527230L-223.792026 226.872776C-159.222784 223.489692,-75.287321 215.689812,-116.525798 254.144915L-160.297878 294.962618" style="stroke:rgb(100.000000%,0.000000%,0.000000%); stroke-width: 26.600062;stroke-linecap: round;stroke-linejoin: round;stroke-miterlimit: 10.000000;fill: none;"/>
  </g>
  <path d="M66.500473 584.399811L66.500473 305.097824C66.500473 269.630905,119.700851 269.630905,119.700851 305.097824L119.700851 584.399811C119.700851 619.866730,66.500473 619.866730,66.500473 584.399811Z" style="fill: rgb(0.000000%,0.000000%,0.000000%);stroke: none;"/>
  <path d="M109.060730 584.399811C122.363434 432.352661,129.889069 254.557419,266.001892 254.557419C287.570877 254.557419,305.902176 270.729019,305.902176 291.797729C305.902176 327.264648,359.102554 327.264648,359.102554 291.797729C359.102554 248.458466,313.589828 222.637268,266.001892 222.637268C115.297043 222.637268,91.961761 414.996704,77.140579 584.399811C75.450485 603.717255,107.048019 607.404724,109.060730 584.399811Z" style="fill: rgb(0.000000%,0.000000%,0.000000%);stroke: none;"/>
</svg>