<svg xmlns="http://www.w3.org/2000/svg" xmlns:xlink="http://www.w3.org/1999/xlink" version="1.1" width="319.202271" height="851.206055" viewBox="0 0 319 851">
<!-- Original BoundingBox: 0.000000 -239.401703 319.202271 611.804352 -->
  <path d="M210.141541 344.998108L212.801514 278.497635C192.483398 256.680969,161.972961 247.527817,133.000946 254.557419C102.159668 262.040573,78.157104 287.517456,79.800568 318.397919C82.301468 365.389633,134.992218 384.076584,182.637634 398.198486C233.423752 413.251282,284.108612 440.542374,292.602081 491.299149C304.066055 559.807617,236.849396 613.622757,159.601135 613.659973C102.935928 613.687271,49.244049 588.305664,13.300095 544.499527L23.940216 491.299149C27.429337 473.853653,52.371246 473.853653,55.860367 491.299149L66.500473 544.499527C89.946152 570.869827,124.436813 584.666107,159.601135 581.739822C210.539261 577.500885,250.922333 536.599152,239.401703 491.299149C228.624313 448.921616,179.653015 436.998047,136.564621 424.798676C80.332809 408.878082,26.883453 373.899002,26.600189 318.397919C26.326157 264.704910,76.470627 226.952408,133.000946 222.637268C183.741531 218.764084,233.243912 239.555069,266.001892 278.497635L242.061691 344.998108C234.689941 365.475143,209.541931 359.988617,210.141541 344.998108Z" style="fill: rgb(0.000000%,0.000000%,0.000000%);stroke: none;"/>
</svg>