<svg xmlns="http://www.w3.org/2000/svg" xmlns:xlink="http://www.w3.org/1999/xlink" version="1.1" width="452.203217" height="851.206055" viewBox="0 0 452 851">
<!-- Original BoundingBox: 0.000000 -239.401703 452.203217 611.804352 -->
  <g transform="matrix(0.681995,-0.731357,0.731357,0.681995,0.000000,0.000000)">
    <path d="M-129.803417 230.155373L-343.800152 429.708491L-325.658968 449.162731L-111.662232 249.609614" style="stroke:rgb(0.000000%,0.000000%,0.000000%); stroke-width: 26.600062;stroke-linecap: round;stroke-linejoin: round;stroke-miterlimit: 10.000000;fill: none;"/>
  </g>
  <g transform="matrix(0.681995,-0.731357,0.731357,0.681995,0.000000,0.000000)">
    <path d="M33.467247 405.243538L-180.529488 604.796656L-162.388303 624.250896L51.608432 424.697779" style="stroke:rgb(0.000000%,0.000000%,0.000000%); stroke-width: 26.600062;stroke-linecap: round;stroke-linejoin: round;stroke-miterlimit: 10.000000;fill: none;"/>
  </g>
  <g transform="matrix(0.681995,-0.731357,0.731357,0.681995,0.000000,0.000000)">
    <path d="M-161.075203 586.655429L-142.934018 606.109670L-195.460412 655.090817L-97.581056 654.745271C-162.150297 658.128355,-246.085760 665.928235,-204.847283 627.473132L-161.075203 586.655429" style="stroke:rgb(0.000000%,0.000000%,0.000000%); stroke-width: 26.600062;stroke-linecap: round;stroke-linejoin: round;stroke-miterlimit: 10.000000;fill: none;"/>
  </g>
  <g transform="matrix(0.681995,-0.731357,0.731357,0.681995,0.000000,0.000000)">
    <path d="M14.012962 423.384765C-103.349427 515.076967,-238.058585 621.110564,-328.285034 524.353541C-355.533505 495.132831,-369.745624 453.902784,-343.800108 429.708449C-330.830614 417.614326,-312.689429 437.068566,-325.658923 449.162690C-347.147485 469.200891,-348.323235 502.864979,-328.285034 524.353541" style="stroke:rgb(0.000000%,0.000000%,0.000000%); stroke-width: 26.600062;stroke-linecap: round;stroke-linejoin: round;stroke-miterlimit: 10.000000;fill: none;"/>
  </g>
  <g transform="matrix(0.681995,-0.731357,0.731357,0.681995,0.000000,0.000000)">
    <path d="M-160.297878 294.962618L-178.439063 275.508377L-125.912670 226.527230L-223.792026 226.872776C-159.222784 223.489692,-75.287321 215.689812,-116.525798 254.144915L-160.297878 294.962618" style="stroke:rgb(0.000000%,0.000000%,0.000000%); stroke-width: 26.600062;stroke-linecap: round;stroke-linejoin: round;stroke-miterlimit: 10.000000;fill: none;"/>
  </g>
</svg>