<svg xmlns="http://www.w3.org/2000/svg" xmlns:xlink="http://www.w3.org/1999/xlink" version="1.1" width="611.804352" height="851.206055" viewBox="0 0 611 851">
<!-- Original BoundingBox: 0.000000 -239.401703 611.804352 611.804352 -->
  <g transform="matrix(0.681995,-0.731357,0.731357,0.681995,0.000000,0.000000)">
    <path d="M51.608432 424.697779C-48.507002 518.055965,-183.486512 564.631225,-319.870969 552.878374L-149.257658 248.296558L-116.197523 244.746059L-286.810835 549.327875L-319.870969 552.878374" style="stroke:rgb(100.000000%,0.000000%,0.000000%); stroke-width: 26.600062;stroke-linecap: round;stroke-linejoin: round;stroke-miterlimit: 10.000000;fill: none;"/>
  </g>
  <g transform="matrix(0.681995,-0.731357,0.731357,0.681995,0.000000,0.000000)">
    <path d="M219.414398 604.649509C119.298964 698.007695,-15.680546 744.582955,-152.065004 732.830104L18.548308 428.248289L51.608432 424.697779L-119.004880 729.279594L-152.065004 732.830104" style="stroke:rgb(100.000000%,0.000000%,0.000000%); stroke-width: 26.600062;stroke-linecap: round;stroke-linejoin: round;stroke-miterlimit: 10.000000;fill: none;"/>
  </g>
  <path d="M114.380890 265.197540L220.781647 584.399811C228.614441 607.898178,181.709747 626.785233,167.581268 584.399811L61.180511 265.197540C53.347717 241.699173,100.252411 222.812119,114.380890 265.197540Z" style="fill: rgb(0.000000%,0.000000%,0.000000%);stroke: none;"/>
  <path d="M223.441620 597.699905C309.052002 502.869934,356.442566 379.654480,356.442566 251.897446C356.442566 230.617340,324.522415 230.617340,324.522415 251.897446C324.522415 379.654480,277.131851 502.869934,191.521469 597.699905C182.355545 607.852936,205.479324 617.596603,223.441620 597.699905Z" style="fill: rgb(0.000000%,0.000000%,0.000000%);stroke: none;"/>
</svg>