<svg xmlns="http://www.w3.org/2000/svg" xmlns:xlink="http://www.w3.org/1999/xlink" version="1.1" width="372.402649" height="851.206055" viewBox="0 66 372 851">
<!-- Original BoundingBox: 0.000000 -239.401703 372.402649 678.304764 -->
  <g transform="matrix(0.681995,-0.731357,0.731357,0.681995,0.000000,0.000000)">
    <path d="M-463.516995 614.087084C-404.364864 558.927401,-302.044350 594.383951,-244.388923 537.047447C-200.921399 493.820371,-205.237753 423.018292,-248.207293 376.938625C-204.679283 423.617185,-133.615678 433.750795,-88.754999 391.917967C-29.651691 336.803812,-55.718530 233.812802,3.384778 178.698646C46.361902 138.622244,113.690078 140.973744,153.766480 183.950868C120.232839 147.990069,66.064962 138.434531,31.909611 170.284581C-27.077190 225.290094,-5.061623 325.517511,-60.230166 383.503903C-110.935820 436.799439,-196.895256 431.964618,-248.207293 376.938625C-196.217600 432.691322,-196.669159 519.774207,-254.772571 564.915752C-314.668896 611.450228,-408.025139 580.526124,-464.173523 632.884797C-501.778504 667.951646,-503.836066 726.863805,-468.769217 764.468786C-508.845619 721.491662,-506.494119 654.163486,-463.516995 614.087084Z" style="stroke:rgb(0.000000%,0.000000%,0.000000%); stroke-width: 26.600062;stroke-linecap: round;stroke-linejoin: round;stroke-miterlimit: 10.000000;fill: none;"/>
  </g>
</svg>