<svg xmlns="http://www.w3.org/2000/svg" xmlns:xlink="http://www.w3.org/1999/xlink" version="1.1" width="638.404541" height="851.206055" viewBox="0 0 638 851">
<!-- Original BoundingBox: 0.000000 -239.401703 638.404541 611.804352 -->
  <g transform="matrix(0.681995,-0.731357,0.731357,0.681995,0.000000,0.000000)">
    <path d="M100.243989 379.344858L117.072118 436.394524L114.446007 511.585375L93.678711 567.321985L15.861749 639.886725L-41.187917 656.714854L-116.378768 654.088743L-172.115379 633.321447L-226.538934 574.958725L-243.367063 517.909059L-242.054007 480.313634" style="stroke:rgb(0.000000%,0.000000%,0.000000%); stroke-width: 26.600062;stroke-linecap: round;stroke-linejoin: round;stroke-miterlimit: 10.000000;fill: none;"/>
  </g>
  <g transform="matrix(0.681995,-0.731357,0.731357,0.681995,0.000000,0.000000)">
    <path d="M-190.256564 613.867207L-134.519953 634.634503L-59.329102 637.260614L-2.279436 620.432485L75.537526 547.867745L115.759063 473.989950L117.072118 436.394524L100.243989 379.344858L63.961619 340.436377L8.225009 319.669081L-29.370417 318.356025L-48.824657 336.497210L-30.683473 355.951451L26.366194 339.123321L63.961619 340.436377L100.243989 379.344858" style="stroke:rgb(0.000000%,0.000000%,0.000000%); stroke-width: 26.600062;stroke-linecap: round;stroke-linejoin: round;stroke-miterlimit: 10.000000;fill: none;"/>
  </g>
  <g transform="matrix(0.681995,-0.731357,0.731357,0.681995,0.000000,0.000000)">
    <path d="M49.759601 208.195860L-5.977010 187.428564L-81.167860 184.802453L-138.217527 201.630582L-234.175674 254.741081L-292.538395 309.164636L-352.214172 401.183616L-372.981469 456.920227L-376.920635 569.706503L-323.810136 665.664650L-251.245397 743.481612L-159.226416 803.157390L-46.440140 807.096556L10.609526 790.268427L106.567673 737.157928L164.930395 682.734373L224.606172 590.715393L245.373468 534.978782L247.999580 459.787931L231.171450 402.738265L196.202136 326.234359L123.637396 248.417397L49.759601 208.195860" style="stroke:rgb(0.000000%,0.000000%,0.000000%); stroke-width: 26.600062;stroke-linecap: round;stroke-linejoin: round;stroke-miterlimit: 10.000000;fill: none;"/>
  </g>
</svg>