<svg xmlns="http://www.w3.org/2000/svg" xmlns:xlink="http://www.w3.org/1999/xlink" version="1.1" width="638.404541" height="851.206055" viewBox="0 0 638 851">
<!-- Original BoundingBox: 0.000000 -239.401703 638.404541 611.804352 -->
  <g transform="matrix(0.681995,-0.731357,0.731357,0.681995,0.000000,0.000000)">
    <path d="M63.961619 340.436377L8.225009 319.669081L-66.965842 317.042970L-124.015508 333.871099L-201.832471 406.435839L-222.599767 462.172449L-225.225878 537.363300L-208.397749 594.412966L-153.974194 652.775688L-98.237583 673.542984L-60.642158 674.856039" style="stroke:rgb(0.000000%,0.000000%,0.000000%); stroke-width: 26.600062;stroke-linecap: round;stroke-linejoin: round;stroke-miterlimit: 10.000000;fill: none;"/>
  </g>
  <g transform="matrix(0.681995,-0.731357,0.731357,0.681995,0.000000,0.000000)">
    <path d="M-190.256564 613.867207L-207.084693 556.817541L-204.458582 481.626690L-183.691286 425.890079L-105.874323 353.325339L-29.370417 318.356025L8.225009 319.669081L63.961619 340.436377L100.243989 379.344858L117.072118 436.394524L115.759063 473.989950L96.304822 492.131134L78.163637 472.676894L98.930933 416.940284L100.243989 379.344858L63.961619 340.436377" style="stroke:rgb(0.000000%,0.000000%,0.000000%); stroke-width: 26.600062;stroke-linecap: round;stroke-linejoin: round;stroke-miterlimit: 10.000000;fill: none;"/>
  </g>
  <g transform="matrix(0.681995,-0.731357,0.731357,0.681995,0.000000,0.000000)">
    <path d="M231.171450 402.738265L247.999580 459.787931L245.373468 534.978782L224.606172 590.715393L164.930395 682.734373L106.567673 737.157928L10.609526 790.268427L-46.440140 807.096556L-159.226416 803.157390L-251.245397 743.481612L-323.810136 665.664650L-376.920635 569.706503L-372.981469 456.920227L-352.214172 401.183616L-292.538395 309.164636L-234.175674 254.741081L-138.217527 201.630582L-81.167860 184.802453L-5.977010 187.428564L49.759601 208.195860L123.637396 248.417397L196.202136 326.234359L231.171450 402.738265" style="stroke:rgb(0.000000%,0.000000%,0.000000%); stroke-width: 26.600062;stroke-linecap: round;stroke-linejoin: round;stroke-miterlimit: 10.000000;fill: none;"/>
  </g>
</svg>