<svg xmlns="http://www.w3.org/2000/svg" xmlns:xlink="http://www.w3.org/1999/xlink" version="1.1" width="718.205109" height="851.206055" viewBox="0 0 718 851">
<!-- Original BoundingBox: 0.000000 -239.401703 718.205109 611.804352 -->
  <g transform="matrix(0.681995,-0.731357,0.731357,0.681995,0.000000,0.000000)">
    <path d="M-47.511602 298.901785L-103.248212 278.134488L-178.439063 275.508377L-235.488729 292.336507L-313.305691 364.901246L-334.072988 420.637857L-336.699099 495.828708L-319.870969 552.878374L-283.588600 591.786855L-227.851989 612.554151L-152.661138 615.180262L-95.611472 598.352133L-17.794510 525.787393L2.972786 470.050783L5.598897 394.859932L-11.229232 337.810266L-47.511602 298.901785" style="stroke:rgb(0.000000%,0.000000%,0.000000%); stroke-width: 26.600062;stroke-linecap: round;stroke-linejoin: round;stroke-miterlimit: 10.000000;fill: none;"/>
  </g>
  <g transform="matrix(0.681995,-0.731357,0.731357,0.681995,0.000000,0.000000)">
    <path d="M-47.511602 298.901785L-103.248212 278.134488L-103.248212 278.134488L-217.347544 311.790747L-295.164506 384.355487L-336.699099 495.828708L-336.699099 495.828708L-319.870969 552.878374" style="stroke:rgb(0.000000%,0.000000%,0.000000%); stroke-width: 26.600062;stroke-linecap: round;stroke-linejoin: round;stroke-miterlimit: 10.000000;fill: none;"/>
  </g>
  <g transform="matrix(0.681995,-0.731357,0.731357,0.681995,0.000000,0.000000)">
    <path d="M-283.588600 591.786855L-227.851989 612.554151L-227.851989 612.554151L-113.752657 578.897892L-35.935695 506.333153L5.598897 394.859932L5.598897 394.859932L-11.229232 337.810266" style="stroke:rgb(0.000000%,0.000000%,0.000000%); stroke-width: 26.600062;stroke-linecap: round;stroke-linejoin: round;stroke-miterlimit: 10.000000;fill: none;"/>
  </g>
  <g transform="matrix(0.681995,-0.731357,0.731357,0.681995,0.000000,0.000000)">
    <path d="M152.041432 512.898431L96.304822 492.131134L21.113971 489.505023L-35.935695 506.333153L-113.752657 578.897892L-134.519953 634.634503L-137.146064 709.825354L-120.317935 766.875020L-65.894380 825.237741L-10.157770 846.005037" style="stroke:rgb(0.000000%,0.000000%,0.000000%); stroke-width: 26.600062;stroke-linecap: round;stroke-linejoin: round;stroke-miterlimit: 10.000000;fill: none;"/>
  </g>
  <g transform="matrix(0.681995,-0.731357,0.731357,0.681995,0.000000,0.000000)">
    <path d="M-120.317935 766.875020L-102.176750 786.329260L-119.004880 729.279594L-116.378768 654.088743L-95.611472 598.352133L-17.794510 525.787393L58.709397 490.818079L96.304822 492.131134L152.041432 512.898431L188.323802 551.806912L205.151932 608.856578L202.525820 684.047429L162.304284 757.925224L-37.248751 543.928578" style="stroke:rgb(0.000000%,0.000000%,0.000000%); stroke-width: 26.600062;stroke-linecap: round;stroke-linejoin: round;stroke-miterlimit: 10.000000;fill: none;"/>
  </g>
  <g transform="matrix(0.681995,-0.731357,0.731357,0.681995,0.000000,0.000000)">
    <path d="M-10.157770 846.005037L27.437656 847.318093" style="stroke:rgb(0.000000%,0.000000%,0.000000%); stroke-width: 26.600062;stroke-linecap: round;stroke-linejoin: round;stroke-miterlimit: 10.000000;fill: none;"/>
  </g>
  <g transform="matrix(0.681995,-0.731357,0.731357,0.681995,0.000000,0.000000)">
    <path d="M144.163099 738.470983L184.384636 664.593188L205.151932 608.856578" style="stroke:rgb(0.000000%,0.000000%,0.000000%); stroke-width: 26.600062;stroke-linecap: round;stroke-linejoin: round;stroke-miterlimit: 10.000000;fill: none;"/>
  </g>
</svg>