<svg xmlns="http://www.w3.org/2000/svg" xmlns:xlink="http://www.w3.org/1999/xlink" version="1.1" width="452.203217" height="851.206055" viewBox="0 13 452 851">
<!-- Original BoundingBox: 0.000000 -239.401703 452.203217 625.104385 -->
  <g transform="matrix(0.681995,-0.731357,0.731357,0.681995,0.000000,0.000000)">
    <path d="M105.640858 210.642775C64.350455 166.363780,-0.156454 149.083516,-48.619607 181.729285C-109.755370 222.911585,-102.959248 308.540264,-79.174427 382.984032C-51.384864 469.962193,-22.626311 568.352564,-87.709288 627.354298C-148.793488 682.730884,-244.153258 658.119393,-302.898193 591.607659C-346.693586 542.021970,-368.222230 476.636739,-362.453174 410.731540L-304.090452 356.307986C-365.086031 423.062028,-364.567108 525.475159,-302.898193 591.607659" style="stroke:rgb(0.000000%,0.000000%,0.000000%); stroke-width: 26.600062;stroke-linecap: round;stroke-linejoin: round;stroke-miterlimit: 10.000000;fill: none;"/>
  </g>
  <g transform="matrix(0.681995,-0.731357,0.731357,0.681995,0.000000,0.000000)">
    <path d="M105.640858 210.642775C151.114015 259.407270,159.981921 331.920158,127.600413 390.205838L166.508894 353.923468C163.677591 300.496653,142.128786 249.771692,105.640858 210.642775C57.577629 159.100738,-16.991990 137.342253,-71.952621 176.209192C-138.860558 223.525000,-126.215742 318.646382,-98.628667 401.125217C-72.275153 479.916008,-50.932264 569.821139,-111.042292 621.834215C-166.262687 669.616305,-249.831041 648.515801,-302.898193 591.607659" style="stroke:rgb(0.000000%,0.000000%,0.000000%); stroke-width: 26.600062;stroke-linecap: round;stroke-linejoin: round;stroke-miterlimit: 10.000000;fill: none;"/>
  </g>
  <g transform="matrix(0.681995,-0.731357,0.731357,0.681995,0.000000,0.000000)">
    <path d="M126.408154 154.906165L-359.947859 608.435788" style="stroke:rgb(0.000000%,0.000000%,0.000000%); stroke-width: 26.600062;stroke-linecap: round;stroke-linejoin: round;stroke-miterlimit: 10.000000;fill: none;"/>
  </g>
  <g transform="matrix(0.681995,-0.731357,0.731357,0.681995,0.000000,0.000000)">
    <path d="M162.690524 193.814646L-323.665489 647.344269" style="stroke:rgb(0.000000%,0.000000%,0.000000%); stroke-width: 26.600062;stroke-linecap: round;stroke-linejoin: round;stroke-miterlimit: 10.000000;fill: none;"/>
  </g>
</svg>