<svg xmlns="http://www.w3.org/2000/svg" xmlns:xlink="http://www.w3.org/1999/xlink" version="1.1" width="452.203217" height="851.206055" viewBox="0 0 452 851">
<!-- Original BoundingBox: 0.000000 -239.401703 452.203217 611.804352 -->
  <g transform="matrix(0.681995,-0.731357,0.731357,0.681995,0.000000,0.000000)">
    <path d="M-127.954675 446.657375C-61.048213 448.994157,9.589381 457.127289,65.870809 420.490794C142.097161 370.871108,158.051660 265.820709,97.082191 200.438281C53.597700 153.806391,-16.400786 143.544185,-71.440696 175.731819L-71.440696 175.731819C-6.825715 134.511186,78.607954 149.776006,124.950496 210.821930C173.786091 275.151887,162.204608 366.719442,98.930933 416.940284C36.610080 466.404869,-48.641741 454.522157,-127.954675 446.657375C-218.695230 437.659420,-310.101334 437.618961,-400.849818 446.536620L-183.155599 679.987507L-126.105933 663.159377C-161.211687 651.120953,-192.814387 630.626097,-218.124914 603.483600" style="stroke:rgb(0.000000%,0.000000%,0.000000%); stroke-width: 26.600062;stroke-linecap: round;stroke-linejoin: round;stroke-miterlimit: 10.000000;fill: none;"/>
  </g>
  <g transform="matrix(0.681995,-0.731357,0.731357,0.681995,0.000000,0.000000)">
    <path d="M-154.630766 671.573442L-363.254393 447.849676" style="stroke:rgb(0.000000%,0.000000%,0.000000%); stroke-width: 26.600062;stroke-linecap: round;stroke-linejoin: round;stroke-miterlimit: 10.000000;fill: none;"/>
  </g>
</svg>