<svg xmlns="http://www.w3.org/2000/svg" xmlns:xlink="http://www.w3.org/1999/xlink" version="1.1" width="452.203217" height="851.206055" viewBox="0 0 452 851">
<!-- Original BoundingBox: 0.000000 -239.401703 452.203217 611.804352 -->
  <g transform="matrix(0.681995,-0.731357,0.731357,0.681995,0.000000,0.000000)">
    <path d="M-34.622639 468.737727C-76.212470 472.941601,-117.396830 457.596423,-146.095860 427.203135C-208.638851 360.967903,-197.679360 255.405819,-128.490406 192.559989C-56.519923 127.187632,54.331066 128.541313,115.879859 201.094851C182.885510 280.080900,157.720731 398.489472,78.163637 472.676894C-40.497901 583.329422,-218.765601 600.278350,-356.153339 513.969893L-356.153339 513.969893C-229.352880 593.983586,-64.552642 578.482364,45.103513 476.227404C132.117803 395.086106,187.342175 277.729596,115.879859 201.094851C57.682700 138.685392,-42.104993 152.166063,-110.349221 212.014230C-177.508510 270.910918,-202.378479 366.846791,-146.095860 427.203135C-117.545506 457.819958,-76.246311 473.207916,-34.622639 468.737727Z" style="stroke:rgb(0.000000%,0.000000%,0.000000%); stroke-width: 26.600062;stroke-linecap: round;stroke-linejoin: round;stroke-miterlimit: 10.000000;fill: none;"/>
  </g>
</svg>