<svg xmlns="http://www.w3.org/2000/svg" xmlns:xlink="http://www.w3.org/1999/xlink" version="1.1" width="399.002838" height="851.206055" viewBox="0 0 399 851">
<!-- Original BoundingBox: 0.000000 -239.401703 399.002838 611.804352 -->
  <path d="M186.201324 584.399811l0 0" style="stroke:rgb(0.000000%,0.000000%,0.000000%); stroke-width: 66.500473;stroke-linecap: round;stroke-linejoin: round;stroke-miterlimit: 10.000000;fill: none;"/>
  <g transform="matrix(0.681995,-0.731357,0.731357,0.681995,0.000000,0.000000)">
    <path d="M-189.539632 458.621950C-192.326591 438.081565,-182.298795 417.919813,-164.237045 407.748894C-150.012561 399.738811,-133.203241 399.422458,-116.914499 399.991357C-30.601849 403.005908,67.323118 429.373012,119.698229 361.203673C162.802238 305.101223,139.607383 226.539768,88.668082 171.913490C29.174149 108.113397,-66.243101 100.648625,-99.309045 165.348212C-105.441069 177.346632,-107.519169 191.540600,-100.622101 202.943638C-90.610972 219.495230,-68.323478 219.130910,-63.026676 204.256693C-59.493393 194.334733,-68.094162 185.471435,-71.440740 175.731860C-90.100228 121.426932,8.482113 85.923676,88.668082 171.913490C140.623548 227.629483,141.670484 314.229031,86.638105 364.754183C33.538662 413.504715,-44.833104 402.508868,-116.914499 399.991357C-153.712111 398.706166,-193.053933 401.711378,-216.751410 429.440589C-225.038228 439.137267,-229.626183 452.292109,-222.599767 462.172449C-213.973257 474.302758,-195.393650 472.307416,-189.539632 458.621950" style="stroke:rgb(0.000000%,0.000000%,0.000000%); stroke-width: 26.600062;stroke-linecap: round;stroke-linejoin: round;stroke-miterlimit: 10.000000;fill: none;"/>
  </g>
</svg>