<svg xmlns="http://www.w3.org/2000/svg" xmlns:xlink="http://www.w3.org/1999/xlink" version="1.1" width="505.403595" height="851.206055" viewBox="0 0 505 851">
<!-- Original BoundingBox: 0.000000 -239.401703 505.403595 611.804352 -->
  <g transform="matrix(0.681995,-0.731357,0.731357,0.681995,0.000000,0.000000)">
    <path d="M6.376267 103.167079L-382.708634 465.990861" style="stroke:rgb(0.000000%,0.000000%,0.000000%); stroke-width: 26.600062;stroke-linecap: round;stroke-linejoin: round;stroke-miterlimit: 10.000000;fill: none;"/>
  </g>
  <g transform="matrix(0.681995,-0.731357,0.731357,0.681995,0.000000,0.000000)">
    <path d="M24.517452 122.621319L-364.567449 485.445101" style="stroke:rgb(0.000000%,0.000000%,0.000000%); stroke-width: 26.600062;stroke-linecap: round;stroke-linejoin: round;stroke-miterlimit: 10.000000;fill: none;"/>
  </g>
  <g transform="matrix(0.681995,-0.731357,0.731357,0.681995,0.000000,0.000000)">
    <path d="M97.082191 200.438281C171.156339 279.873903,115.621137 410.453105,4.942370 413.657644C-30.353545 414.679585,-63.617393 398.640818,-87.733139 372.779580" style="stroke:rgb(0.000000%,0.000000%,0.000000%); stroke-width: 26.600062;stroke-linecap: round;stroke-linejoin: round;stroke-miterlimit: 10.000000;fill: none;"/>
  </g>
  <g transform="matrix(0.681995,-0.731357,0.731357,0.681995,0.000000,0.000000)">
    <path d="M-179.752119 313.103803C-144.646365 325.142227,-113.043665 345.637083,-87.733139 372.779580C-40.150561 423.806176,38.071927 432.613176,90.516869 388.415450C146.760113 341.016721,148.187828 255.242935,97.082191 200.438281L6.376267 103.167079" style="stroke:rgb(0.000000%,0.000000%,0.000000%); stroke-width: 26.600062;stroke-linecap: round;stroke-linejoin: round;stroke-miterlimit: 10.000000;fill: none;"/>
  </g>
  <g transform="matrix(0.681995,-0.731357,0.731357,0.681995,0.000000,0.000000)">
    <path d="M-382.708634 465.990861L-292.002709 563.262063C-239.251277 619.831634,-156.509733 641.214871,-95.611472 598.352133C-23.436906 547.552677,-23.969975 441.157909,-87.733139 372.779580C-113.043665 345.637083,-144.646365 325.142227,-179.752119 313.103803" style="stroke:rgb(0.000000%,0.000000%,0.000000%); stroke-width: 26.600062;stroke-linecap: round;stroke-linejoin: round;stroke-miterlimit: 10.000000;fill: none;"/>
  </g>
  <g transform="matrix(0.681995,-0.731357,0.731357,0.681995,0.000000,0.000000)">
    <path d="M-87.733139 372.779580C-31.319326 433.276613,-44.885440 530.156399,-113.752657 578.897892C-169.514560 618.363953,-245.774099 612.836691,-292.002709 563.262063" style="stroke:rgb(0.000000%,0.000000%,0.000000%); stroke-width: 26.600062;stroke-linecap: round;stroke-linejoin: round;stroke-miterlimit: 10.000000;fill: none;"/>
  </g>
  <g transform="matrix(0.681995,-0.731357,0.731357,0.681995,0.000000,0.000000)">
    <path d="M-87.733139 372.779580C-113.043665 345.637083,-144.646365 325.142227,-179.752119 313.103803" style="stroke:rgb(0.000000%,0.000000%,0.000000%); stroke-width: 26.600062;stroke-linecap: round;stroke-linejoin: round;stroke-miterlimit: 10.000000;fill: none;"/>
  </g>
</svg>