<svg xmlns="http://www.w3.org/2000/svg" xmlns:xlink="http://www.w3.org/1999/xlink" version="1.1" width="452.203217" height="851.206055" viewBox="0 0 452 851">
<!-- Original BoundingBox: 0.000000 -239.401703 452.203217 611.804352 -->
  <g transform="matrix(0.681995,-0.731357,0.731357,0.681995,0.000000,0.000000)">
    <path d="M6.376267 103.167079L-382.708634 465.990861" style="stroke:rgb(0.000000%,0.000000%,0.000000%); stroke-width: 26.600062;stroke-linecap: round;stroke-linejoin: round;stroke-miterlimit: 10.000000;fill: none;"/>
  </g>
  <g transform="matrix(0.681995,-0.731357,0.731357,0.681995,0.000000,0.000000)">
    <path d="M24.517452 122.621319L-364.567449 485.445101" style="stroke:rgb(0.000000%,0.000000%,0.000000%); stroke-width: 26.600062;stroke-linecap: round;stroke-linejoin: round;stroke-miterlimit: 10.000000;fill: none;"/>
  </g>
  <g transform="matrix(0.681995,-0.731357,0.731357,0.681995,0.000000,0.000000)">
    <path d="M78.941006 180.984041C141.053609 247.592342,123.521287 354.857421,43.194323 396.172987C-12.584984 424.862651,-77.661862 407.253677,-135.055684 380.537117C-160.500766 368.692544,-185.175434 355.258853,-208.933480 340.315580" style="stroke:rgb(0.000000%,0.000000%,0.000000%); stroke-width: 26.600062;stroke-linecap: round;stroke-linejoin: round;stroke-miterlimit: 10.000000;fill: none;"/>
  </g>
  <g transform="matrix(0.681995,-0.731357,0.731357,0.681995,0.000000,0.000000)">
    <path d="M-208.933480 340.315580C-184.786617 354.584576,-160.145461 368.000049,-135.055684 380.537117C-53.830205 421.124536,43.517654 443.096000,100.243989 379.344858C149.809816 323.640961,132.570510 238.495238,78.941006 180.984041L6.376267 103.167079" style="stroke:rgb(0.000000%,0.000000%,0.000000%); stroke-width: 26.600062;stroke-linecap: round;stroke-linejoin: round;stroke-miterlimit: 10.000000;fill: none;"/>
  </g>
</svg>