<svg xmlns="http://www.w3.org/2000/svg" xmlns:xlink="http://www.w3.org/1999/xlink" version="1.1" width="452.203217" height="851.206055" viewBox="0 0 452 851">
<!-- Original BoundingBox: 0.000000 -239.401703 452.203217 611.804352 -->
  <g transform="matrix(0.681995,-0.731357,0.731357,0.681995,0.000000,0.000000)">
    <path d="M115.879859 201.094851C74.589456 156.815856,10.082547 139.535592,-38.380606 172.181361C-99.516369 213.363661,-92.720247 298.992339,-68.935426 373.436108C-41.145863 460.414269,-12.387310 558.804640,-77.470287 617.806373C-138.554487 673.182960,-233.914257 648.571469,-292.659192 582.059735C-336.454585 532.474046,-357.983229 467.088814,-352.214172 401.183616L-293.851451 346.760061C-354.847029 413.514104,-354.328107 515.927235,-292.659192 582.059735" style="stroke:rgb(0.000000%,0.000000%,0.000000%); stroke-width: 26.600062;stroke-linecap: round;stroke-linejoin: round;stroke-miterlimit: 10.000000;fill: none;"/>
  </g>
  <g transform="matrix(0.681995,-0.731357,0.731357,0.681995,0.000000,0.000000)">
    <path d="M115.879859 201.094851C161.353016 249.859346,170.220923 322.372233,137.839414 380.657914L176.747895 344.375544C173.916592 290.948729,152.367787 240.223768,115.879859 201.094851C67.816630 149.552814,-6.752989 127.794329,-61.713620 166.661268C-128.621557 213.977076,-115.976741 309.098458,-88.389666 391.577293C-62.036152 470.368084,-40.693263 560.273215,-100.803291 612.286291C-156.023686 660.068381,-239.592040 638.967877,-292.659192 582.059735" style="stroke:rgb(0.000000%,0.000000%,0.000000%); stroke-width: 26.600062;stroke-linecap: round;stroke-linejoin: round;stroke-miterlimit: 10.000000;fill: none;"/>
  </g>
</svg>