<svg xmlns="http://www.w3.org/2000/svg" xmlns:xlink="http://www.w3.org/1999/xlink" version="1.1" width="585.204163" height="851.206055" viewBox="13 0 585 851">
<!-- Original BoundingBox: -13.300034 -239.401703 585.204163 611.804352 -->
  <g transform="matrix(0.681995,-0.731357,0.731357,0.681995,0.000000,0.000000)">
    <path d="M33.383381 132.128963L-268.157392 413.317371C-330.434319 471.390944,-302.842854 571.138981,-238.440300 640.202980C-174.037746 709.266979,-76.457730 743.750311,-14.180803 685.676739L287.359970 404.488331" style="stroke:rgb(0.000000%,0.000000%,0.000000%); stroke-width: 26.600062;stroke-linecap: round;stroke-linejoin: round;stroke-miterlimit: 10.000000;fill: none;"/>
  </g>
  <g transform="matrix(0.681995,-0.731357,0.731357,0.681995,0.000000,0.000000)">
    <path d="M51.524566 151.583204L-250.016207 432.771612C-307.645049 486.510820,-295.524577 578.986954,-238.440300 640.202980" style="stroke:rgb(0.000000%,0.000000%,0.000000%); stroke-width: 26.600062;stroke-linecap: round;stroke-linejoin: round;stroke-miterlimit: 10.000000;fill: none;"/>
  </g>
  <g transform="matrix(0.681995,-0.731357,0.731357,0.681995,0.000000,0.000000)">
    <path d="M-437.993334 426.206334L-8.341407 87.384143L93.249354 196.328024L-437.993334 426.206334" style="stroke:rgb(0.000000%,0.000000%,0.000000%); stroke-width: 26.600062;stroke-linecap: round;stroke-linejoin: round;stroke-miterlimit: 10.000000;fill: none;"/>
  </g>
  <g transform="matrix(0.681995,-0.731357,0.731357,0.681995,0.000000,0.000000)">
    <path d="M-437.993334 426.206334L245.635182 359.743511L329.084758 449.233151L-437.993334 426.206334" style="stroke:rgb(0.000000%,0.000000%,0.000000%); stroke-width: 26.600062;stroke-linecap: round;stroke-linejoin: round;stroke-miterlimit: 10.000000;fill: none;"/>
  </g>
</svg>