<svg xmlns="http://www.w3.org/2000/svg" xmlns:xlink="http://www.w3.org/1999/xlink" version="1.1" width="425.603027" height="851.206055" viewBox="0 0 425 851">
<!-- Original BoundingBox: 0.000000 -239.401703 425.603027 611.804352 -->
  <g transform="matrix(0.681995,-0.731357,0.731357,0.681995,0.000000,0.000000)">
    <path d="M24.517452 122.621319L-325.658968 449.162731L-307.517783 468.616972L42.658636 142.075560" style="stroke:rgb(100.000000%,0.000000%,0.000000%); stroke-width: 26.600062;stroke-linecap: round;stroke-linejoin: round;stroke-miterlimit: 10.000000;fill: none;"/>
  </g>
  <g transform="matrix(0.681995,-0.731357,0.731357,0.681995,0.000000,0.000000)">
    <path d="M-307.517738 468.616930C-319.997295 509.958822,-306.780467 554.765730,-273.861479 582.716262C-216.439511 631.471567,-132.891950 613.014452,-66.430111 571.140355C18.421090 517.680100,64.832825 419.377590,6.911998 357.264465C-77.466475 266.778694,-202.349147 370.546648,-307.517738 468.616930C-202.349147 370.546648,-77.466475 266.778694,6.911998 357.264465C60.942877 415.206089,0.655099 500.987054,-84.571296 551.686115C-156.879144 594.700255,-245.256630 623.095096,-292.002664 563.262022C-312.972046 536.422041,-318.820179 500.747194,-307.517738 468.616930" style="stroke:rgb(100.000000%,0.000000%,0.000000%); stroke-width: 26.600062;stroke-linecap: round;stroke-linejoin: round;stroke-miterlimit: 10.000000;fill: none;"/>
  </g>
  <path d="M90.440475 531.199432L90.440475 78.996216C90.440475 43.529297,143.640854 43.529297,143.640854 78.996216L143.640854 531.199432C143.640854 566.666351,90.440475 566.666351,90.440475 531.199432Z" style="fill: rgb(0.000000%,0.000000%,0.000000%);stroke: none;"/>
</svg>