<svg xmlns="http://www.w3.org/2000/svg" xmlns:xlink="http://www.w3.org/1999/xlink" version="1.1" width="399.002838" height="851.206055" viewBox="0 0 399 851">
<!-- Original BoundingBox: 0.000000 -239.401703 399.002838 611.804352 -->
  <g transform="matrix(0.681995,-0.731357,0.731357,0.681995,0.000000,0.000000)">
    <path d="M-29.370417 318.356025C-93.070517 250.045323,-202.475622 261.551605,-274.397210 328.618876C-346.318799 395.686148,-365.429885 504.021912,-301.729784 572.332614C-378.139787 490.392070,-314.139112 356.140864,-187.915595 304.349456C-132.898096 281.774955,-68.500189 276.394047,-29.370417 318.356025" style="stroke:rgb(100.000000%,0.000000%,0.000000%); stroke-width: 26.600062;stroke-linecap: round;stroke-linejoin: round;stroke-miterlimit: 10.000000;fill: none;"/>
  </g>
  <g transform="matrix(0.681995,-0.731357,0.731357,0.681995,0.000000,0.000000)">
    <path d="M-301.729784 572.332614C-254.899486 622.552481,-174.864501 617.699521,-122.823250 569.170772" style="stroke:rgb(100.000000%,0.000000%,0.000000%); stroke-width: 26.600062;stroke-linecap: round;stroke-linejoin: round;stroke-miterlimit: 10.000000;fill: none;"/>
  </g>
  <g transform="matrix(0.681995,-0.731357,0.731357,0.681995,0.000000,0.000000)">
    <path d="M-274.397210 328.618876C-197.559193 268.587316,-91.582869 251.640647,-29.370417 318.356025C-2.121946 347.576735,12.090173 388.806782,-13.855343 413.001117C-26.824837 425.095240,-44.966022 405.640999,-31.996528 393.546876C-10.507966 373.508675,-9.332216 339.844587,-29.370417 318.356025" style="stroke:rgb(100.000000%,0.000000%,0.000000%); stroke-width: 26.600062;stroke-linecap: round;stroke-linejoin: round;stroke-miterlimit: 10.000000;fill: none;"/>
  </g>
  <path d="M204.821381 626.960068C292.117218 626.960068,367.082489 562.797897,367.082489 477.999054C367.082489 456.718948,335.162338 456.718948,335.162338 477.999054C335.162338 545.199875,274.511795 595.039917,204.821381 595.039917C183.541275 595.039917,183.541275 626.960068,204.821381 626.960068Z" style="fill: rgb(0.000000%,0.000000%,0.000000%);stroke: none;"/>
  <path d="M212.801514 254.557419C143.971161 254.557419,102.461517 324.539749,93.100662 398.198486C80.594833 496.604431,126.163986 595.039932,212.801514 595.039932C234.081619 595.039932,234.081619 626.960083,212.801514 626.960083C101.461121 626.960083,25.767029 516.049255,39.900284 398.198486C51.302658 303.119217,120.448868 222.637268,212.801514 222.637268C234.081619 222.637268,234.081619 254.557419,212.801514 254.557419Z" style="fill: rgb(0.000000%,0.000000%,0.000000%);stroke: none;"/>
</svg>