<?xml version="1.0"?>
<!-- Created by MetaPost 2.02 on 2023.03.27:1557 -->
<svg version="1.1" xmlns="http://www.w3.org/2000/svg" xmlns:xlink="http://www.w3.org/1999/xlink" width="318.803711" height="757.158813" viewBox="0 0 318.803711 757.158813">
<!-- Original BoundingBox: 0.000000 -239.102783 318.803711 518.056030 -->
  <path d="M0.000000 757.102783L318.803711 757.102783L318.803711 -0.056030L0.000000 -0.056030Z" style="stroke:rgb(100.000000%,0.000000%,0.000000%); stroke-width: 0.000000;stroke-linecap: round;stroke-linejoin: round;stroke-miterlimit: 10.000000;fill: none;"></path>
  <g transform="matrix(0.707107,-0.707107,0.707107,0.707107,0.000000,0.000000)">
    <path d="M-239.477892 464.906157L-295.834958 408.549091L-14.049669 126.763802L42.307398 183.120868" style="stroke:rgb(0.000000%,0.000000%,0.000000%); stroke-width: 39.850499;stroke-linecap: round;stroke-linejoin: round;stroke-miterlimit: 10.000000;fill: none;"></path>
  </g>
  <g transform="matrix(0.707107,-0.707107,0.707107,0.707107,0.000000,0.000000)">
    <path d="M42.307398 183.120868C81.676174 222.489645,64.390847 289.048714,14.128886 324.013513C-21.563477 348.842956,-69.096933 353.501827,-98.585247 324.013513L-154.942313 267.656446" style="stroke:rgb(0.000000%,0.000000%,0.000000%); stroke-width: 39.850499;stroke-linecap: round;stroke-linejoin: round;stroke-miterlimit: 10.000000;fill: none;"></path>
  </g>
  <g transform="matrix(0.707107,-0.707107,0.707107,0.707107,0.000000,0.000000)">
    <path d="M-98.585247 324.013513C-63.804993 358.793767,-73.381102 416.219931,-110.326299 453.165127C-147.271484 490.110313,-204.697649 499.686400,-239.477892 464.906157" style="stroke:rgb(0.000000%,0.000000%,0.000000%); stroke-width: 39.850499;stroke-linecap: round;stroke-linejoin: round;stroke-miterlimit: 10.000000;fill: none;"></path>
  </g>
</svg>
